<?xml version="1.0" encoding="UTF-8"?> <svg xmlns="http://www.w3.org/2000/svg" width="1920" height="1021.6"><path d="M-287-113h2876v1171H-287V-113Z" fill="#fbfafa"></path><path d="M1790 330c4 12 10 25-3 27-3 0-4-1-5-3l-11-31c19 2 13-12 19 7Zm-5-15c1 4-12 5-14 3l9-3h5Zm-5-38-5 1-1 1c-1 1-1 1 1 6l9 26h-2c-6 1-11 3-13 5l-14-34h-5c5-2 23-6 30-5Zm-5-4c-7 1-28 3-30 10 0 2 1 3 5 3l3 1c1 2 12 29 19 51 7 20 8 20 11 22h8c12-7 7-15 2-33l-16-46c2 0 8-2 8-4 2-4-6-5-10-4Zm-235 5c2 2 5 9 4 9l-5 1c-7 0-8 1-8 2l1 2 14-1c4 11 2 6-7 9-1 1 0 2 1 3l10-1 3 9c-1 1-10 1-8 4-1 2 8-1 9-1l3 8-3 1c-4 1-5 2-3 3l7-1 3 8-3 1c-4 1-5 2-4 3 0 2 7 0 9 0l2 8h-2l-5 1c-2 4 5 2 9 2l2 8c-3 2-9 2-9 4-1 3 8 0 10 0 0 7-9 9-16 11-6 1-8 0-10-4-4-8-24-75-27-85 3-2 12-3 17-4h6Zm-10-3c-8 2-17 2-16 7l8 29 9 30c7 17 7 34 19 34 9-1 24-4 23-15 2-1-14-44-18-54s-8-28-14-31c-3-2-8-1-11 0Zm181 91c-1 2-15 7-17 7l17-7Zm9-9c4 2-33 13-38 16l-4-1 38-14 4-1Zm-6-4c5 2-2 3-24 11-23 7-16 7-23 5 9-3 43-15 45-17 1-1 1 0 2 1Zm-6-5c1 1 2 1 1 2l-42 15 1-4c7-2 35-14 38-14l2 1Zm-7-6 2 2-32 12 4-5 24-10 2 1Zm-6-5 1 2-16 6c-6 3-5 3-2-2l15-7 2 1Zm-5-4v1l-9 4 4-8 5 3Zm6-49c31 6 47 46 27 71l-38-29c-2-1-2 0-6 7l-17 33c-40-27-14-91 34-82Zm-17-3c-26 3-45 30-40 56 11 53 87 52 96-1 5-32-24-61-56-55Zm261 40c2 4 2 8 8 8 3 0 6-4 6-8l8-1v12c-1 13-1 14-3 15-4 2-22 2-28 3v-12c-1-2-2-1-4-2-3-2-2-5 2-5l2-1v-9h9Zm-24-7c1 1 1 6 3 6l9 1v6l-1 1c-9 2-7 11 1 12v10c-3 0-22 1-22-3-1-1-3-17-3-26l8-1c2-2 1-10 5-6Zm34-21c10 2 11 3 13 7l-1 17h-6c-4 0-6 0-6 4-1 6-4 6-5 0-1-7-8-4-14-4v-7h2c5 0 9-4 7-8s-5-4-9-5v-5l19 1Zm-23 1c1 4 0 6 6 7s5 6-2 5c-5 0-4 6-4 11h-6l-1-1c-1-7-7-9-10-4l-1 6h-6l1-20 4-3c4-2 13-3 19-2v1Zm-5-5c-21 2-23 2-22 24 1 46-2 41 40 40 34-1 23-5 26-38v-16c-1-13-33-9-44-10Zm-90 62c15 11 35 8 46-6 21 37-34 67-54 30-5-10-5-21 1-30l7 6Zm-1-11-1 5c-2-2-4-3-1-5 2-2 2-3 2 0Zm45 2-4 4v-9l4 5Zm-39-6-1 14-3-2c1-2 1-12 3-13q1-1 1 1Zm30-2 1 6 1 9c-3 1-4 3-4-2l1-13h1Zm-5-2h1l-1 20-3 1 1-11c0-11-1-11 2-10Zm-19 3-1 17-2-1v-14c1-2 0-5 2-5 1-1 2 0 1 3Zm13-4v23h-3v-22c0-2 1-2 3-1Zm-6 0-2 23h-2l1-23 2-1q2 0 1 1Zm9-37c17 4 27 22 22 38l-3 7-1-2a35 35 0 0 0-52 2 31 31 0 0 1 34-45Zm-15-4a34 34 0 0 0-21 52 35 35 0 0 0 38 53c22-6 32-34 20-53a34 34 0 0 0-37-52Zm-386 135c5 2 2 11-3 13-4 1-8-2-8-7s6-9 11-6Zm28-7 4 2-1 3-11-6 3-2 5 3Zm-22-3c2 1 1 2 0 4l-3 4-3-2 4-6h2Zm38 0c5 0 6-3 9 4 6 9-3 19-12 20-5 0-9-5-9-10 0-3 4-5 4-9v-2l7-4 1 1Zm4-12c1 1 2 2 2 5-1 2-1 3-3 3-3 0-3 1-3-3l1-5h3Zm-34-8c12 6 11 18-1 21-1 0-2 0-2-2-2-2-3-3-6-3l-4 1-1-2c-1-5 0-11 4-11 2 0 6-3 7-5l3 1Zm-9-6 1 5-3 2c-1 1-4-10-4-10l4-1 2 4Zm48-3c6 4 8 14 1 18-2 2-4-10-12-3-2 3-4-3-4-5l2-5c12-2 5-9 13-5Zm-21-2c1-1 4 4 5 5-4 6-3 14 3 17l1 4-8 7c-12-7-7-2-7-12l-3-7v-2l8-13 1 1Zm10-1 2 3-3 2-4-5 3-3 2 3Zm-23-4-5 12c-5-2-4 2-6-4-2-5-2-4 1-8l9-1 1 1Zm8-1c1 2 1 2-3 9l-3 7-4-1 6-15c1-2 3-1 4 0Zm33-3c1 3 2 3-1 6l-2 3-3-2c0-1 4-10 6-7Zm-8 0 1 1-2 5-5 1-1 1c-3-6-3-4-1-10h6l2 2Zm-37-1-5 1-1-3 5-2 1 4Zm-14-5c7 2 5 13-2 13-6 0-9-6-6-11 2-3 6-4 8-2Zm48-1v2c-1 0-5 1-4-1 0-3 0-2 4-1Zm-13-9c9 4 6 20-4 21l-1-2c-2-6-7-5-11-3-6-7 2-15 8-17 2-1 6 0 8 1Zm32-1c9 3 8 15 0 18-4 2-3 2-4 0 0-5-4-7-8-4-2 2-3 1-4-3 0-5 1-8 4-10s8-3 12-1Zm-54-3q5 5 3 8h-2l-4-4c-5-4-5-4-4-6 3-4 3-1 7 2Zm21-6c2 1 1 4 1 6l-2-1c-4 0-3 0-3-3l1-2h3Zm-36-13c1 3 2 3 5 3 4 0 4-1 4-3 3 2 3 8 2 11l-4 2c-2 1-3 5-3 7-9 0-15-10-9-18l4-3 1 1Zm42-5c13 2 11 17-1 19l-1-2c-3-4-8-3-11-1-6-8 4-18 13-16Zm-33-2-4 7-2-1 2-7 1-1 3 2Zm-4-14c2 4 0 4-6 4l-8-1 1-4 13 1Zm16-8c14 4 5 20-7 19-2 0-10-3-6-5 3-2 2-8-1-10 3-3 9-5 14-4Zm-39-3c8 3 8 16 0 18-17 5-17-22 0-18Zm-7-3c-8 2-12 11-8 18 2 5 6 7 12 7 5 0 7-1 10-4l11 1q4 0 2 5c-1 3-2 3-3 3-3 0-7 4-9 8-5 11 5 22 16 20l9 7-6 3c-9-10-24-2-19 10 7 11 4-1 10 18-4 6-4 13 0 18l-2 5c-8 1-13 8-11 16 4 8 15 6 19-2 2-4-1-7 3-11 2-6 2-1 10-5l10 8v3c0 8 9 15 16 13 6-1 14-8 14-14 2-9-6-14-5-19l1-1c9-4 10-13 5-22l4-5c10 0 18-9 14-19-4-12-27-11-28 2h-4l-1-2c-1-3-9-8-3-8 8-1 16-11 12-19-6-14-30-9-30 6 0 5 1 8 3 9q2 0 2 3c0 3-2 1-5 3l-2 2-7-8c1-6 1-12-3-16-2-1 0-3 0-5 33 1 21-39-6-22l-2 4h-12c-2-8-10-13-17-10Zm-37 70c2 3-2 8-5 9s-9 0-12-2c3-3 12-8 17-7Zm-38-22c3 2 4 3 3 8l-1 6-4-8-1-7 3 1Zm59-4c5 6-1 15-8 14 0-3 0-7 2-10l5-5 1 1Zm-36-6c4 1 6 7 5 9-2-1-10-4-11-8v-1h6Zm-15-3h3c3 7 6 11 12 14 3 1 3 2 3 3l5 7 6 8c-6 0-14 3-19 8l-13-11 2-10c0-6-5-9-10-11v-8h11Zm-9-14c1 2 4 5 7 4l3 7-16-2c-3-1-1-9-1-10l7 1Zm31-4 6 11c1 3 14 10 18 12l-1 2c-12 15 5 19-21 7-1-4 0-9-4-12-3-3-9-3-14-3l-5-10 20-9 1 2Zm0-11c1 4 0 4-2 5-3 3-10 5-15 7-9 4-9 4-10 3l-3-6 4-2c13-5 26-11 26-7Zm-6-5-26 10c-3 2-2 4-1 6h-2c-7-1-6 2-7 9s1 8 6 8c-1 5-1 22 2 25 5 6 22 25 34 24 5 0 9-3 11-6 2-8 0-11-7-20-5-6-2-3 4-1 8 4 11 5 14 5 11 1 17-13 9-20-1-3-16-10-20-13-3-2-7-9-9-15 2-2 2-2 2-5-1-7-3-8-10-7Zm-381 49c4 3-5 7-5 2 0-2 2-3 5-2Zm34-7c-1 32-13 31-40 30-16-1-20-3-24-10-3-6-5-15-6-21h33l-4 6c-7 9 8 15 11 6 0-3 5-9 8-12l22-1v2Zm-13-23-13 21-5 7-4-2c3-5 19-29 22-26Zm-25-5 2 23-32 1v-3l2-11 11-8 4-3 11-1c2-1 2-2 2 2Zm-2-6-13 2-9 8-8 5-2 13c-1 5-1 9 1 16 3 14 7 19 16 22 8 2 30 3 41 0 17-3 15-19 19-34 2-4-2-3-13-3h-12c4-5 11-16 10-19 0-6-6-4-11 1-3 3-9 11-12 17v-11l-2-17h-5Zm1035 22v57l-54 3v-63c-1-1 40-3 53-3v6h1Zm0-10c-5 0-52 2-57 4 0 1-2 66 1 68s29 0 35 0l23-2c4-7 1-63 0-69l-2-1Z" fill="#ebebeb"></path><path d="m2022 338 1 11h-39l-1-14 39-2v5Zm-9-8c-9 1-28 0-34 2v5c1 13 0 12 3 15h43c3-3 1-8 1-14l-1-8h-12Zm-7 27s0 7-1 6l-8 1v-7h9Zm-8-2c-4 0-3 1-3 5 0 6 0 5 6 5l6-1 1-4c0-6-3-5-10-5Zm-9 2c2-1 1 5 1 7h-3c-6 0-6 0-6-4v-4l8 1Zm-9-1v8l6 1h5l1-5-1-4-6-1-5 1Zm11 13v6h-8v-6h8Zm-8-2c-2 0-2 2-2 5v4c1 2 12 2 11 0v-8l-9-1Zm23 2v6h-3c-4 0-4 0-4-3s0-3 4-3h3Zm-7-2c-3 1-2 9-1 9l9 1 1-5v-4c-1-1-8-2-9-1Zm8 13 1 3 1 3-5 1q-5 0-5-4v-3h8Zm-8-2c-1 1-2 1-2 4 1 6 1 7 8 7 6 0 5 0 5-6l-1-4-10-1Zm-8 3 1 5c-2 2-6 1-9 1v-6h8Zm-9-2-1 5q1 5 6 5c6 0 6 0 6-5s0-4-3-5h-9Zm-439 40c13 13 43 32 64 31-29 32-81 3-71-38l7 7Zm3-11c17 2 53 24 59 34 11 16-48-12-56-22-8-7-15-15-3-12Zm58-55 8 3c-3 9-13 32-12 33 17 12 22 38 10 56-7-20-55-42-70-41 4-7 12-15 19-18 20-9 27 1 28-6l11-29 6 2Zm-9-14c4 3 13 6 24 10l6 2-2 4c0 3-24-9-28-10-5-1-3-4-2-7l2 1Zm8-3c5 0 20 8 21 11-5-1-24-8-29-12l8 1Zm-10-5-3 4c-3 9-2 11 4 14 3 0-7 22-10 29-33-3-57 22-52 54 5 24 29 39 53 34 37-6 48-56 18-79l12-29c8 2 10 3 13-4 6-10-14-18-22-22l-13-1Zm-474 15 4 7h-1c-5 1-11 7-13 11-2-4-8-8-13-8 5-5 4-10 4-17 6 2 13 2 17-1l2 8Zm-3-12c-6 6-17-1-19 2l-1 3c1 9 0 13-6 16l-4 2c0 2 1 2 5 2 9-1 15 4 16 11l2 3c1 0 2 0 2-2 1-8 6-15 14-14 3 0 4 0 4-2-3-6-9-12-8-19-1-4-2-4-5-2Zm167 16 26 1c0 6-1 14-5 17-8 7-24 7-32-1-4-4-5-11-5-17h16Zm-19 2c-2 19 16 28 33 24 12-2 15-13 16-25l23 10c5 2 6 3 5 7-2 5-6 13-9 16s-10-1-12 1l-1 9v35l-6 5c-8 4-12 13-18 21-2 2-4 2-8 2-6 0-8-2-10-8-4-14-5-15-11-18-9-1 0-52-10-52-4-1-8 7-12 3l-8-11c-2-2-1-4 5-10 8-9 11-12 23-11v2Zm-6-6c-7 1-10 2-16 9-7 8-13 10-9 18 1 3 5 8 8 10 4 4 6 5 11 2l3-2c2 0 3 12 3 30-1 32 10 11 15 35 2 12 12 15 22 12 8-6 9-18 20-23 7-4 7-5 8-11 1-7 0-29-1-38h10c3-1 7-7 10-14 3-6 3-9 2-12 0-3-21-10-25-12l-8-2-14-1-39-1Z" fill="#ebebeb"></path><path d="M1290 407c1 1 3 6 5 5l-8 13c-2 2-2 2-4 0-2-3-11-14-6-17 3-1 6 2 9 0l4-1Zm4-15c4 3 6 0 9-1l2 1c1 4-9 15-11 15l-2-3c-4-10-5-16 2-12Zm-6-4c-4 2-2 11 0 15v1c-2 0-4 3-7 1s-7 0-8 3c-3 6 5 16 8 20 4 4 6 3 13-6 5-8 5-9 6-15l6-7c5-8 1-16-7-12q-2 2-3 1c-3-2-6-3-8-1Zm-334 55c14 7 4 27-10 24-18-6-6-31 10-24Zm34-16c6 2 9 10 6 16-2 8-17 11-23 3-8-10 6-24 17-19Zm-56-9c-4 9-5 19 0 28-4 1-11 0-12-4-5-7 7-22 13-26l-1 2Zm29-10c8 2 15 7 19 14-15 5-21 22-6 31h2l-13 7 1-2c4-18-18-26-29-14-10-17 7-42 26-36Zm16-4c21 5 9 22 5 14-3-4-8-8-13-11l-7-3c4-1 10-2 15 0Zm-30-50c6 3 4 9 3 15l2 5c4 5 5 9 5 14 1 16-25 25-37 14-9-9-5-16-11-19-4-2-8-9-5-13 2-2 4-3 8-3 9 1 0 4 14-2 9-2 10-15 21-11Zm-7-4c-9 2-7 10-18 14l-5 1c-10-5-23 4-16 15l6 6c2 1 2 1 2 3 2 10 12 21 22 21 9-1-10 8-14 21-4 10 2 20 13 18l2 1c-2 6-1 12 4 17 6 5 16 5 22-1l2-1 15-7 5-3 3-1c18-1 22-24 6-31 13-12-6-26-21-24l-11 4-4 1c10-8 10-21 2-32-2-3-2-3 0-8 2-9-7-17-15-14Z" fill="#ebebeb"></path><path d="M941 371v1c1 2 3 1 3-1 0-1-2-2-3 0Zm-4 12c3 3-2 7-4 3-2-2 2-5 4-3Zm-5-4c-5 3-4 12 2 12l1 3c0 5-9 5-8 8-1 2 3 1 5 0 4-2 5-4 7-6 4 3 10 2 12-4 2-4-1-5-3-1-1 2-2 3-4 3s-6-3-4-4c5-5-1-14-8-11Zm-13 1c-1 2 1 4 2 2 1-1 0-2-2-2Zm285-22c4 2 3 4 4 7 2 2 7-5 10-3 2 1 3 2 3 5 0 5-3 9-14 17l-5 2c-2-5-13-31 2-28Zm-5-4-4 3c-4 4-3 13 3 28 2 5 2 6 4 6 5-2 24-15 22-23 1-9-7-13-14-8-1-4-6-7-11-6Zm-84 35c12 10 15 9 33 5 10-2 12-3 21 3l2 4c3 18-2 22-27 24s-38-8-34-33l1-6 4 3Zm46-25c6 3 3 17 14 15h3c-3 7-11 6-13 12-2-2-6-2-9-2l-5-1-6-3c-10-9 6-25 16-21Zm-8-4c-13 4-22 22-7 29l2 1c-3 2-10 3-14 3-13 2-19-13-24-10-3 1-4 5-4 13-1 10 0 18 7 25 9 9 26 8 40 7 17-3 23-8 23-20 0-4-1-12-4-13l-2-1c-5-4 4-5 6-7 3-2 6-7 6-9q-1-2-6-2c-5 0-6 0-7-4-2-10-7-15-16-12Z" fill="#ebebeb"></path><path d="M1156 368c-2 2-2 7 2 7 7 1 6-11-2-7Zm-2 39c-1 7-11 10-19 10l-10-4c2-1 2-2 2-4h5c13 1 23-10 22-2Zm-5-5c-14 7-25 1-25 6v1l-12-4-2 1c0 2 0 1 7 6 13 9 20 11 32 6 7-3 10-9 8-14s-4-4-8-2Zm-83 0c-3 6 0 8-12 7-13 0-11-1-13-7-2-1 26-1 25-1Zm9 0 10 63v1h-3l-10-51c-1-3-3-4-5-5l3-9h2c1 0 3-1 3 1Zm-40-1 2 1 2 7c-4 4-5 15-10 40l-1 13-2 1c-4-1-4-1-3-11l7-52 5 1Zm43-10-1 5c-3 2-19 2-34 2-12-1-14-1-15-3-1-6 5-4 26-5l24 1Zm-19-27c10 3 16 14 16 23h-41c1-12 12-27 25-23Zm-10-3c-10 3-15 12-18 24l-1 2-5 3c-2 1-1 7 1 8l1 1-8 60c0 5 2 7 7 7 2 1 3 0 4-2 1-1 2-2 3-15 3-19 6-34 8-36h17q9 0 10 2l7 34 4 19 4 1c3 0 7 0 6-3l-11-66 2-2c2-2 3-9 0-10q-2-1-2-4c-1-16-14-27-29-23Zm888 65c11 19 14 30 10 32-3 2-7 0-11-6l-9-23c-1-6-1-3 5-6l2-1 3 4Zm-13-57c32 7 27 53-5 53-40-1-34-60 5-53Zm-13-4c-37 11-27 64 12 61 4 14 7 28 17 35 4 2 10 1 11-3 5-10-8-28-14-38a31 31 0 0 0-26-55Z" fill="#ebebeb"></path><path d="M1925 377c23 9 12 43-11 37-26-7-15-45 11-37Zm-9-5c-33 6-24 52 8 46 28-8 21-48-8-46ZM604 726v3c-1 13-2 18 14 18 9 1 14 0 15 7v14c-1 6-2 7-15 7h-34c-8-1-11-4-12-12l-1-26c1-7 2-8 6-10l26-2 1 1Zm-27-9 13 5c-8 0-14 2-17 3l-2-10 6 2Zm11-33c6 2 9 4 11 8l8 27c-12 5-40-9-48-18l18-15c5-3 6-3 11-2Zm-85-6c7 3 27 12 26 18-8 17-13 19 2 34 6 6 9 10 9 13-2 9-20 22-24 22-4 1-20-16-27-22-25-22-21-21-5-47l13-19c2-1 3-1 6 1Zm133-19c-2 9-22 52-21 49l-1-3-9-22c2-9 6-12 20-20l11-4Zm-52-7c3 9 4 13-1 20l-19 13 1-2 16-39 3 8Zm54-11c4 4 1 7-3 10l-4-7c0-2 0-2 2-3h5Zm-53 2c5 12 8 15 17 19 8 3 12 2 25-4l7-4c0 2-2 2-6 4-19 9-23 11-26 24-2 1 7 19 8 23l2 8-2 3c-5-15-5-32-21-35-12-4-17 5-30 15l2-5 2-1c5-3 21-14 22-16 7-10 6-11 1-26l-3-10c1-1 1 2 2 5Zm30-14 4 6 1 8c-1 1-5-2-6-2v-13l1 1Zm-9-3 4 1 1 11c-4-1-10-6-10-12-1-7 3-1 5 0Zm-16-11-6 12-19 45c-2 5-10 26-9 20 2-10 12-31 18-47 9-20 11-28 16-30Zm10 1 13 4 1 3c-14-8-20-4-15 10 2 4 8 8 16 12 7 4 8 4 8-2-1-14-3-5 4-13v15l4 7c-10 5-21 11-31 5-7-1-11-14-14-24 2-8 6-14 7-16q3-3 7-1Zm8-23 10 10 7 10 1 6c-1 6-1 8-3 10-6 5-6-5-6-8 0-4-2-9-5-11h-3l1 3c1 0 3 3 1 2l-9-3c-1-5-4-10-9-16 3-1 11-3 12-5 1-1 2 0 3 2Zm-34-22c3 11 4 20 12 25 3 2 11 10 12 15-15-1-14 3-25 28l-5 11-5-50 10-31 1 2Zm26-40 6 3c0 13 4 36 5 57-2-1-3-3-3-6 0-8-12-44-12-55l4 1Zm-51-15 9 4c2 6 13 38 13 43l-40 127c-7-6-20-13-28-17l1-10c10-55 20-126 36-150l9 3Zm4-14 4 13-15-5c-1-2-1-4 3-14 3-7 3-8 4-7l4 13Zm232-53 5 3-18 21c-14 17-15 17-19 15-3-1-3-2-2-3l13-17 18-21 3 2Zm-4-13c6 2 14 6 16 9 2 2 1 5-1 5-1 1-4-1-9-4-4-3-7-4-8-3-2 0-5 3-6 6l-3 6-4 2c-2 1-15-3-20-4-10-3-13 3-11-2l1-11c13-2 37-8 45-4Zm-149-3a2037 2037 0 0 1 100 6l1 3-3 11c-2 8-4 9-17 10l-94 2c-3-16-6-26-10-33l23 1Zm-19-5 2 1h-7c2-5 2-3 5-1Zm-17 2c9 3 9 3 12 8 13 28 6 55-1 90l-1 2-11-5-14-100 3 1 12 4Zm-19-6c5 23 17 132 27 160 2 5-10 9-14 9-10 0-12-24-18-40l-18-59c-4-12-6-17-5-27 3-16 10-39 27-44l1 1Zm232-6 6 5-16 18-6-4q-3-1-1-4l16-17 1 2Zm-175-24c-2 11-5 25-13 31-2 2-6 0-9-2-6-6-12-19-10-27l7-7h25v5Zm194-19c-6 9-11 18-4 23 4 4 10 8 13 8 2 0 4-1 10-7l6-6c3 21-38 42-45 14-3-13 6-29 20-32Zm-197-5c5 1 12 5 16 11 2 5-29 4-40 5l-7 7c-6 8 2 24 7 30l-3 6-25-9 5-12c7-19 10-24 15-28 8-6 21-12 32-10Zm-13-4c-31 9-33 28-43 53-3 2-10 5-12 8-12 11-22 42-16 56-4 8-9 20-9 27l-2 4c-20 36-25 96-35 149l-2 9-2 1c-5 2-25 34-25 35-9 19-3 21 14 37 7 6 24 24 29 23 6 3 29-17 28-25 0-4-2-8-10-16-10-11-10-12-3-24 3-5 3-7 3-9v-2c1 3 27-88 27-82 1 9 5 42 4 50-8 23-21 37 0 50 5 3 3 1 5 10v10c-1 3-2 7-1 17 1 23-3 31 25 32 12 0 39 4 43-6 2-5 2-19 0-23-2-5-5-6-17-6-9-1-10-1-11-3v-10c0-5 0-6-2-8 14-8 16-21 28-47 7-18 6-13 3-23 4-2 9-7 5-12-3-5-7-5-11-3 0-2 0-10-2-11v-3l-1-11c-1-6-4-9-9-14-3-2-3-3-3-4 0-12-9-56-5-69 6-34 8-33 8-58l90-2c15 0 20-2 22-6l4-3c5-4 22 4 30 4l-4 5c-13 16-15 19-14 21 1 3 5 6 9 6 4-1 5-2 24-24l15-16 5-2c1-2 2-4 1-5l6-9 11-13c16 4 35-10 38-24 1-4 2-12-3-11l-14 13h-3l-12-9c-2-2 0-4 5-12 3-6 4-7 3-9-2-2-9-1-15 3-10 8-17 24-12 35l1 3-4 4-15 17-3-1c-13-5-31 2-49 4-6-8-81-6-112-8 6-3 13-24 14-30l1-10c4-2 13-2 13-7-2-10-21-19-33-16Z" fill="#ebebeb"></path><path d="m602 668-5 8c-1 1-3 0-4-1v-2l3-6 6 1Zm-8-5c-1 1-5 8-5 11 0 4 5 6 8 6 4 1 8-12 8-13 0-2-10-5-11-4Zm1174-293v7h3l-1-7h-2Zm-32 14c-2 2 5 7 5 7l2-2c0-1-6-7-7-5Zm-65 5c0 3 0 8 4 9 1 1 5-1 7-2 0 1 4 4 3 5-5 3-5 10 0 13l1 2v3h-5c-4 3-5 6-4 9 2 1-3 2-4 3-3-4-10-3-13 1-1 1-6 4-5 1 1-4 0-7-3-8l-3-1c-5 1-5 1-6-1 1-3 4-6 4-9 1-3-1-4-3-5-2 0-2-1-2-4 0-4 4 0 6-4 3-4 3-5 2-7-1-1 2-2 4-4l1 2c2 4 10 1 11-3h5Zm-6-4c-3 1-3 5-6 5l-1-1-4-2-6 3c-2 2-2 3-1 5l-1 3-3 1c-3 0-5 3-5 7s1 5 4 6l2 2c-1 5-10 8-1 14 3 2 10-4 9 4-2 7 7 7 10 2l4-2c3 0 4 3 6 3 4-1 12-3 9-8v-3c3-3 8 3 9-8 0-3 0-4-2-5-3-2-4-4-2-6 4-2 4-5-1-10-2-3-4-4-7-2-8 5 3-12-13-8Z" fill="#ebebeb"></path><path d="M1665 407c6 3 2 12-4 8-4-4-1-10 4-8Zm-4-4c-9 4-6 16 3 16 12 0 8-19-3-16Zm134-16c-2 3-2 4-1 4 1 1 2 1 4-2 2-2 2-3 1-4l-4 2Zm-19 72c0 8-11 8-13 2v-2l14-1-1 1Zm0-5-7 1-6 1-1-3c3 1 15 0 14 1Zm0-5-3 1c-7 1-10 1-10-1h13Zm-6-15 3 11h-8l5-12v1Zm6-9-1 2 1-2Zm-11 1v3c-5-3-2-7 0-3Zm9-34c16 5 21 24 14 38l-11 15c-2-3-3-9-3-13 13-7 1-19-4-5 0 2-1 3-1 1 0-10-14-9-10 0 7 8 9-1 3 17-14-16-24-45-1-52l13-1Zm-11-3c-31 8-19 40-3 59-2 8-2 19 8 21 14 2 13-11 12-20q-1-2 2-4c6-7 11-15 12-22 4-20-11-39-31-34Zm-392 46c4 7 7 8 4 14-4 7-17 25-28 19-5-2-9-9-10-15-5-13 19-21 30-24l4 6Zm-15-25c12 4 27 18 34 30 9 14 11 21-7 13-10-4 4-2-9-20l-4-7-14 3-5-8c-4-9-4-13 5-11Zm34-6c9 2 14 9 10 17-2 4-7 9-10 12-3-5-11-12-17-17 4-7 9-13 17-12Zm4-9c24 10 21 34 1 46l-3-5c5-5 14-14 13-21-1-12-17-18-26-12l-8 11-7-4c-3-1 3-6 5-8 8-7 15-9 25-7Zm-11-4c-8 1-18 9-23 17-19-7-16 7-9 20 2 2 3 2 0 3-20 6-24 23-10 37 3 3 6 5 10 5 10 0 19-11 26-19 15 8 30 11 20-9l2-2c8-6 14-14 15-20 4-18-14-35-31-32Zm640 118 73 2v5l-149-2-1-7c10-1 35 1 77 2Zm-9-27 61 1 20 24h-3l-145-4h-1l17-22 51 1Zm58-71c0 1 2 68 1 69s-110-2-110-3l-4-67 113 1Zm-116-4c-2 2 3 66 3 71l-17 24 1 9c1 5 3 7 6 7l148 2 3-3-1-10c-6-8-14-18-22-25l-1-74c-2-1-116-2-120-1Z" fill="#ebebeb"></path><path d="M2036 432c0 2 0 2 5 2h4c-6 6-23 19-23 17l-12-9c-7-5-10-12-16-8 1 0-21 19-22 22 2 3 3 0 9-5l16-14c1 0 2 0 11 8 11 9 12 10 16 9 0 2 18-12 23-17v3c-1 4-1 5 1 6 3 1 4-14 3-14l-8-1-7 1Zm44 67 1 1h-9c0-2 0-3 4-2l4 1Zm-12 0v1h-6v-3h7l-1 2Zm-10-1v2h-5v-2l3-1h3l-1 1Zm-9-1 1 1-1 2h-6c2-4 2-3 6-3Zm-10 0h2l-1 3h-3l-3-1c2-4 2-2 5-2Zm-7 0-1 3c-6-1-5 1-4-4l5 1Zm-9 0c0 3 0 3-4 3h-4l2-4h7l-1 1Zm-10-1-1 3c-7 0-7 2-4-3h5Zm-10 0h1l-2 3c-7 0-7 1-4-4l5 1Zm-9 0-2 3c-7 0-6 2-4-4l6 1Zm-10-1-1 4c-7 0-7 2-4-4h5Zm-9 0-2 4-5-1 2-3h5Zm-11 0h2l-3 4h-5c2-3 3-6 6-4Zm111-1c-1 0-2 0-1-1h1v1Zm-6-3h2l-1 3c-2 0-7 1-5-2l4-1Zm-7 0-2 2h-5l1-2h6Zm-9 0-1 2h-6l1-2h6Zm-10 0-1 2h-5l1-3c1 0 6 0 5 1Zm-9-1-1 2-2 1c-2 0-3 0-2-2l3-1h2Zm-8 0-1 2h-6l1-3 6 1Zm-10-1-1 3h-6l1-3h6Zm-9 0c-2 5-2 2-8 3l1-3h7Zm-10 0c0 1-1 3-3 3l-4-1 2-2h5Zm-9-1-1 4h-3c-3 0-4-1-2-3l6-1Zm-10 0h1l-2 3h-2q-3 0-2-2c1-2 3-1 5-1Zm-9 1c-1 3-3 2-5 2 2-4 2-3 6-3l-1 1Zm-5-5c-1 2-12 15-10 17 0 3 116 2 123 3l9-1c4 0-9-13-12-16-11 1-106-3-110-3Zm-704-8c6 3 4 12-3 12-9-1-6-15 3-12Zm-11-8c6 7 4 4 0 9l-18-18 5-4 13 13Zm-11-39c6 20-17 39-36 29 13-10 24-21 35-32l1 3Zm-4-8 1 2c-11 12-23 23-36 33-1-2 1-9 1-10 10 0 10 1 10-10l8 1 4-8c0-2 0-2 4-2l3-1c4-2 2-11 5-5Zm-6-2c1 10-9-2-10 10l-1 4h-4c-8-2-5 5-6 10-10-1-10 0-12 9l-3-5 35-31c2-2 2-1 1 3Zm-10-8 6 2-34 30c-6-16 10-35 28-32Zm-10-3c-42 11-20 71 20 53l20 19c-1 6 4 12 10 12 10 0 13-15 4-19l-3-1c-1 0-3-1-10-9l-11-11a29 29 0 0 0-30-44Zm518 10 1 3 6 2c2 0 2-1 2-3-1-1-8-3-9-2Zm79 1c-4 1-5 2-5 3 1 2 2 2 5 1 5-1 6-1 6-3-1-2-1-2-6-1Zm113 53 4 2-5 16c-7 22-8 26-7 30 4 8 10 15 9 25 1 24-24 43-44 28a26 26 0 0 1-4-42c5-5 10-8 20-12s9-3 13-16c11-29 9-34 14-31Zm-8-14-2 2c1-2 4-7 2-2Zm-27-14c0 6-9 15-5 5 0-1 6-9 5-5Zm-19-1-2 3c-1 0 3-8 2-3Zm-35-6 5 3-14 29c-6 13-6 17-8 32-1 15-2 20-4 22-1 2-6 0-20-7-10-5-22-10-20-16 24-23 35-19 51-58 5-10 3-9 10-5Zm12-16c-4 1-9 4-12 7l-4 2c-3 1-2-1-5 3-20 39-16 34-52 62-10 11 2 16 17 24 27 13 28 13 31-16-2-16 12-41 21-61 2-5-4-7-8-9 3-5 14-11 18-9 2 3 4 6 1 9-3 4-4 8-2 10s6-2 7-8c0-3 0-3 3-5 4-2 11 3 7 7-12 15 2 22 5 2q0-3 3-5c6-2 11-1 12 4-7 5-14 16-8 19 7 2 12-8 12-15 0-4 10-2 11 3l-2 4c-5 5-6 12-2 12s6-6 7-10l2-3c3-2 6-2 8 0 1 2 1 2-1 4l-5 6c-4 11 9 8 10-5 4-1 6 0 7 3l-1 13c-2-1-6-3-8-1l-9 25-7 18c0 1-2 3-7 5-19 8-30 17-30 35l1 9c16 40 68 20 61-21-7-30-15-6 0-52 2-8 6-12 3-15v-3c2-8 2-21-9-20l-2-1c-2-5-8-6-13-4-1-3-3-6-7-7-5-2-7 2-8-2-4-7-11-6-18-3-3-5-10-8-15-4-2-6-6-8-12-7Zm-736 52h73c0 4-3 9-5 14-4 8-7 9-22 9l-36-2c-8-2-10-4-13-15-2-8-3-6 3-6Zm65-10 10 1 4 3c0 2 1 2-36 2h-38c-8 0-9 0-12-2 2-2 4-2 9-3l63-1Zm-44-19c2 1 6 5 8 5l7 2c4 3 19 7 20 8-16 1-47 0-61 3l3-7q6-9 10-9c3 1 11-3 13-2Zm-8-2-6 1c-5 0-6 1-10 8-6 8-5 8-7 13-2 4 2 6 2 10 4 13 5 20 16 23 11 1 51 7 60-2 2-4 6-11 8-18l2-4c3-1 5-3 5-6 0-4-3-6-9-6l-10-2-3-1c-1-2-3-2-10-5-11-2-11-5-19-7-6 0-7-6-13-6l-6 2Zm362 120v5c-2 2-5-6-6-10l4-1 2 6Zm-27-66c7 21 1 13-7-2l3-1c3-2 3-2 4 3Zm-4-10 1 2-6 4-2-4 6-4 1 2Zm-6-14 4 9-6 5-10-20 8-4 4 10Zm5-8c12 28 17 29 17 47-1 13 10 32 11 40l-1 2h-2c-4-9-17-38-21-38-10-9-19-32-28-47l4-1 14 29c13 24 23 22 15 0l-15-35 3-2 3 5Zm-5-19 2 7c2 4-22 13-22 12-1 1-2 0-3-1l-6-7 11-2 10-5 6-5 2 1Zm-4-4-4 3c-9 10-24 5-24 11-1 3 7 12 8 13 9 11 20 43 30 49l5 4 16 35 1 1 2 8c2 4 4 6 7 5 3 0 5-2 4-5l-3-12-8-23c-4-10-4-10-4-18-1-20-5-21-16-46l-5-11c2-5-2-17-9-14Zm253 94c0 1 3 3 2 4-1 2-2 3-4 3-7-1-3-11 2-7Zm-4-6 1 1-3 2-1-1c-1-1 1-3 2-3l1 1Zm-5-8c2 3 3 2 1 5-2 1-2 1-4-3l-2-3c4-3 3-4 5 1Zm32-4c5 18 4 52-20 27l2-3c15 14 19-1 15-20l-1-5h2l2 1Zm-8-1c1 2 7 30-2 26-4-1-7-7-10-10-2-1-4-5-5-7l8-10 9 1Zm-17-1h3l-5 6c-1 0-5-6-3-6 1-2 3 0 5 0Zm-12-3c1 1 2 2 0 3q-1 2-3-2l1-1h2Zm-11-2 3 1 4 8c-1 1-13 8-14 5-2-1 0-11 3-15l4 1Zm38 0 1 2h-4l1-2c2-2 1-3 2 0Zm26-2c3 2 1 7-2 7-7 0-4-11 2-7Zm-18 1c2 4-1 3-3 3-2-6-4-5 2-5l1 2Zm-15-3c4 0 0 4-1 5h-8l4-5h5Zm-42 1 3 1-1 3c-2 5-3 9-2 12 2 10 13 4 20-1l3 7-3 3c-20 16-34 14-27-15l3-11 4 1Zm67 0-2 5c-5 0-3 0-5-5l8-1-1 1Zm-38-2 3 1c-1 1-3 5-5 4q-2 0-3-5h5Zm-11-2 3 5h-2c-2 0-3-3-4-5h3Zm-6 1v3l-3-1 2-4 1 2Zm42-3v2h-2l2-3v1Zm-47 0-2 4-7-3 2-4 7 3Zm39-1 1 3h-3c-3 0-4-1-2-3 3-3 2-3 4 0Zm-30-3 1 2-4-1 3-4v3Zm49-5c5 2 9 5 8 7 0 2-10 4-14 4l-2-7 2-3c2-3 1-2 6-1Zm-14 0 1 4-2 4-3-6 3-4 1 2Zm-43 1 1 4-6-2v-1l3-5 2 4Zm48-4c1 1-1 3-1 3l-1-3h2Zm-10-2c2 0 0 2-1 2l-1-3 2 1Zm25-1c23 8 30 18 9 24-2-4-2-5-7-7 10-5-3-13-10-16 2-3 1-4 8-1Zm-41-2 9 1 4 8-8 9-13-2c-1 1-4-9-3-9l6-8 5 1Zm-11 0-2 3c-1-4-1-4 3-4l-1 1Zm-14 0-4 7c-3 3-2 3-5 1-3-1-5-3-5-4l4-2c5 2 10-5 10-2Zm8 2 1 4-2 3-2-8c2-3 2-2 3 1Zm48-3-2 3-3-1-2-1 1-3 6 2Zm-10-2c-1 2-2-1-1-1l1 1Zm-60 0v2c-6 4-3 9 3 12l3 2-2 4c-11-3-27-15-7-21 2 0 2-1 3 1Zm53-2c1 0 4 5 2 4l-2-1c-3 0-3-2-4-4l4 1Zm-10-1c2 0 3 2 3 3l-10-1c1-2 3-3 7-2Zm-9-1-3 3-7-1 1-1c0-2 8-1 9-1Zm-14 0c0 1-1 2-3 2v-2h3Zm-11-1c3 2 1 6-2 6s-4-1-4-4c-1-3 4-5 6-2Zm41-5 2 4c-4 0-5 0-7-3l3-3 2 2Zm-12-3 2 3-3 3-8-1 7-8 2 3Zm43-4c3 1 2 5-1 7-7 2-7-11 1-7Zm-37-1 2 2-3 3-4-5 3-2 2 2Zm21-3c3 2-1 14-3 17h-3c-2-1-3-1-3-3l-5-8c1-1 12-8 14-6Zm-37-3 6 6-11 10-1-5c-1-5-1-15 6-11Zm0-9c3 1 9 6 12 10-3 2-2 3-5 0-14-14-19-1-16 15h-3c-2-14-1-31 12-25Zm50-2c3 2 3 9 2 12l-2 1c-8 1-9 12-2 15-4 7-2 5-10 4 9-20 2-29-17-15-1-1-4-4-3-5 8-6 23-15 32-12Zm-10-4c-7 2-17 8-25 13-8-8-18-18-27-9-4 3-5 19-4 26q0 2-1 1c-4-2-7-1-10 1l-4 3c-8 2-15 7-12 15 1 4 11 10 17 12-4 12-10 30-1 39 5 7 23-1 34-11l1 5c0 5 3 8 7 8l4 3c6 5 9 8 15 8 16-1 12-28 10-40l2-1 3 1c3 3 8 2 10-1l2-2c30-8 12-25-8-31-6-2-5-1-3-5l3-3c6-1 7-10 3-13v-8c0-10-6-13-16-11Z" fill="#ebebeb"></path><path d="M1689 491c2 1 1 5-2 5-6 0-3-10 2-5Zm-4-5c-8 3-6 14 2 14 11 0 8-17-2-14Zm-776 45 8 1-6 5-2-1-3-6 3 1Zm32-2 2 1-19 14v-3c1-4 3-6 11-10l6-2Zm4-11v8h-2c-7-4-19 8-21 11l-2 8-2 3-5 2 1-3c0-2 0-5-2-7l5-4 5-5c-1-1 6-4 9-6 9-5 11-6 12-10 1-3 1 0 2 3Zm-126-41c18 1 36 6 47 14l10 11c11 11 12 12 16 12 9-1 15-7 24-13l6-4 13 9 6 4c0 2-2 7-5 8l-17 10c-3 1-6 1-12-1s-6-1-6 0q-1 1 1 4l5 8q4 6 3 8c-1 3-1 3-5 2l-6-2-1-13c-2-8-11-12-18-9-3 1-5 4-8 9l-2 4-24-7q-12-2-13-6c-2-10-3-15-11-16s-12 8-13 16l-5-4-1-6c1-13 1-28 7-37l3-2 6 1Zm82-2c5 3 14 15 19 20-10 7-27 18-29 15-2 0-3-2-13-10-8-9-9-10-7-11 2-3 26-14 29-15l1 1Zm-59-13c1 1 2 11 5 7l-1-7c-2-3 42 6 49 10-8 5-23 10-29 16a95 95 0 0 0-50-15l4-3c7-4 17-11 22-8Zm-1-10v3q1 3-3 3c-6 0-15 5-24 11-9 7-11 13-13 29-1 18-4 24 4 29l5 2c4-3 3-16 12-17 5 1 6 5 7 11 1 8 2 9 14 11l22 6c7 3 7 2 11-4 3-9 10-11 16-6 2 2 3 5 3 12 1 9 1 9 12 11h10l30-22c2-3 3-5 2-13-3-11-3-8-16-18-14-7-23-26-34-31-12-6-39-11-54-12-1-1-1-9-4-5Z" fill="#ebebeb"></path><path d="M837 488c12 2 28 14 35 20l-37-10-4-11 6 1Zm-11-1 3 5 2 5c-3-1-9-4-10-7s-2-4 1-4l4 1Zm-9-4c-2 1-1 4 1 8 3 7 10 10 44 18 13 3 16 4 17 3v-4l-22-16c-7-5-29-10-40-9Zm473 1c1 2 4 3 16 5l12 2c6 0 5 0 7 3 2 6-3 23-5 37-3 15-6 20-10 21-6 1-36-7-34-12-3-8 7-65 14-56Zm13-4c7 1 20 3 19 6-1 2-3 2-17-1-9-2-13-1-12-6 1-1 2 0 10 1Zm11-24c2 0 1 18 2 20v3l-16-3 8-13c2-6 3-9 6-7Zm-3-4c-3 1-5 5-6 9-3 6-6 13-11 14-5 0-3 4-5 4-10 3-11 18-14 33-4 26-9 32 10 39 8 1 21 6 28 4 3-2 6-6 8-13 3-12 12-45 6-52l-1-4c0-4-2-5-5-6-2-6-2-4-2-14l-1-10c-1-3-4-5-7-4Zm218 13c4 0 2 21 4 25 2 8 1 10-7 13-15 4-21 23-33 22-9 1-13-5-12-14l1-6c1-9-12-12-8-17 2-5 14-3 17-6 5-6 3-19 15-15 8 4 16-4 23-2Zm-5-4-6 2c-12 6-21-8-27 10-1 4-2 6-4 6-4 2-12 2-14 5-4 3-5 9-1 11l6 6v8c-3 12 5 21 17 20 12 0 19-19 31-22 7-2 9-4 11-7 2-7-2-14-2-24 0-9 0-10-3-13-2-2-5-3-8-2Z" fill="#ebebeb"></path><path d="M1522 477c0 4 3 14 1 16l-4 3c-8 4-10 5-16 12s-13 14-13-1c-1-7-3-10-5-15 0-1 1-2 5-3 8-1 9-7 14-12h3l8-1 7-3v4Zm-3-7c-5 2-6 3-12 3-7 1-5 0-10 7-2 3-2 4-6 5-9 3-9 3-9 6-1 1 0 2 1 4 2 3 3 6 3 12 1 15 8 17 18 5 10-13 21-12 23-19 2-3-1-11-1-16l-1-6c-2-2-4-2-6-1Zm31 73 1 2c-17 19-54 56-66 41-2-13 34-33 59-51l6 8Zm37-62c20 3 33 25 28 44-11 41-72 34-72-9-1-23 22-40 44-35Zm-14-4c-24 3-40 30-31 53v2c-9 6-69 43-61 54 15 24 58-22 73-38 22 18 58 6 64-22 8-27-17-54-45-49Z" fill="#ebebeb"></path><path d="M1588 490a28 28 0 1 1-27 45c-18-19 1-52 27-45Zm-13-4c-40 10-28 69 13 61 40-11 27-67-13-61Z" fill="#ebebeb"></path><path d="M1589 500c12 7 15 21 6 30v-2c3-16-15-33-6-28Zm-6-4c-4 6 15 20 7 37-5 13 16-5 14-15 2-9-14-26-21-22Zm-583 29v2h-1c-1-1 0-5 1-2Zm6-3 2 7-3 1c0-1-5-10-3-12l2-2 2 6Zm13-7c3 9 4 11 10 20v1c-8-2-16 0-18-11l-4-13 10-2 2 5Zm-3-12v3l-9 2-1-4 9-4 1 3Zm74-4c1 1-1 3-1 1-1-2-1-3 1-1Zm-30-1c3 9 8 28 2 36-7 12-15 10-26 4-6-8-14-20-15-30l34-9 5-1Zm23-2c2 1 2 3 3 6 1 4 0 4-1 5l-2-8c-1-2-2-4 0-3Zm-5 1c6 18 3 17-9 28-1 1-1 0-1-3 0-7-2-17-5-25l13-4 2 4Zm-22-5 1 3-37 10-2-6 37-9 1 2Zm18-4 1 2-13 3-3-3c6-2 14-3 15-2Zm-13-3c-21 5-48 11-53 14-4 2-6 4-5 7v5l-1 1c-2 1-4 4-4 7 1 2-3 2-3 7 0 3 2 5 5 5 4-1 2 4 10 2 3 3 4 4 11 5 8 1 9 2 17 5s11 4 18 2c8-4 12-16 20-21 4-4 8-8 9-12l1-1c4-3 3-4 6-7 4-4 1-9-3-9-3 0-5-3-8-3l-1-2c-5-8-8-6-19-5Zm330 56c-3 5-9 4-21 5-8 0-10 0-12-2l-2-3 35-2-1 2h1Zm-17-24c6 1 11 8 6 12l-10 1h-5c-5-6 2-16 9-13Zm17-8 1 26-3 1-34 1-2-26 19-2-1 2-2 3c-4 0-10 6-9 11-1 7 5 11 11 9 2-2 10-1 12-3 3-2 4-7 2-11-2-3-7-6-11-7 1-1 3-2 2-3l2-1h13Zm-4-12 4 8-38 2c-1-3 2-8 4-11l28-1 2 2Zm2-8c1 3-3 2-13 3-6 0-19 2-21 0-1-1-1-3 1-2l33-1Zm-17-4c-22 1-24-1-19 9l1 1c-5 6-5 8-5 21 3 28 0 33 20 34 17-1 24 0 26-11 1-5 0-30-1-36 0-3-2-6-4-8 2-2 3-3 3-6 0-7-9-4-21-4Zm38 6c6 3 5 11 2 16-4 6-4 7-4 16 3 35-8 21-3-5 2-12-3-8-5-17-1-6 4-13 10-10Zm-5-4c-11 3-10 18-3 24-2 12-4 34 2 35 2 3 5 2 7-1 3-4 0-31 2-32 2-4 6-10 5-15 0-8-6-13-13-11Zm-215 72c-3 10 4 22 16 18-5 6-17 6-21 1-4-6-2-15 4-19h1Zm31-10 7 1c-1 5-2 8 1 12-5-1-8 1-11 5-1-6-2-9-7-10 4-3 5-6 6-11l4 3Zm-17-7c1 1 0 4-2 3-3-1 0-5 2-3Zm46-1c2 2 3 4 6 2 3-3 9 0 6 3l-19 9c-4 1-4-2-3-5 2-2 7-4 5-7-1-3 3-3 5-2Zm-21-6c2 2-1 4-3 1-1-1 2-3 3-1Zm-35-41c-4 4-2 11 4 13l5 2 5 15c-14 6-24 17-23 33-10 9-6 28 9 28 7 0 13-2 16-8 2-3 1-6-1-6-2 1-4 3-7 3-6 0-9-4-9-9 0-6 5-10 3-11-1-2-6 0-8 1 0-6 4-15 9-19l1 3c-5 7 6 14 10 7 1-4-1-8-5-8-2 0-3-3-4-4l9-6 5 14c0 7 0 10-5 13-4 4-4 5 0 5 6 1 5 2 6 7l2 7c1 1 2 0 4-2 3-9 7-6 13-6h3c1-2 0-3-2-5-3-4-4-5-3-8 4-11-7-4-12-9l-2-2-5-15 10-2 3 6c-7 4 2 15 7 8 2-3 0-8-3-8l-3-6 11 3c3 2 6 6 7 9-5 5 0 6-4 9-3 2-5 5-4 9 2 6 8 4 12 2 5-3 20-8 18-12 1-6-7-9-12-5-2-2-3-3-5-3l-2-3c-3-6-9-10-16-12-26-4-15 11-25-14-1-2-2-3-5-4-4-1-7-5-4-7 1-1 5 3 6-1 0-2-6-4-9-2Zm-508 5c60 17 29 104-28 80-45-23-21-91 28-80Zm-19-4c-49 10-49 80 0 91 28 5 57-17 55-46 1-28-27-51-55-45Z" fill="#ebebeb"></path><path d="M673 557c19 2 15 0 20 9 3 4 3 3-1 5-13 7-29 5-40-5 1-2 7-10 11-10l10 1Zm6-52c1 1-2 12 1 11 2 1 2-8 2-11l12 4c-1 2-9 9-6 10 0 1 2 0 5-4l4-4 8 8c-1 1-10 6-8 7 0 3 8-3 9-4l4 8c4 13-1 30-11 37-6-9-6-13-22-13-16-1-17-4-25 6l-2 3c-1 1-6-6-6-7 2-1 9-4 8-6l-1-1c-2-1-7 4-8 3l-2-10c2 0 10 0 9-2 1-2-4-1-9-1l2-13c4 3 11 6 11 4 2-1-7-5-9-6 2-4 4-8 7-10 2 2 8 9 9 7 3-1-5-7-6-9 1-2 8-5 9-5l3 9h2c2 0 1-3 0-6l-1-4c-1-1 11-2 11-1Zm-9-4c-46 8-43 75 4 78 57 0 52-83-4-78Z" fill="#ebebeb"></path><path d="M677 539c5 3-1 9-4 4-1-3 2-6 4-4Zm15-19-13 15h-2c-7-1-10 9-4 12 7 4 12-3 8-10l10-11c4-5 5-5 4-6h-3Zm13 13v5l-1 13c-4 0-2-13-2-19l3 1Zm-4-3h-2l-1 9 1 13c2 2 6 3 7 2 3-3 2-8 3-16 0-7 0-7-2-8h-6Zm-29 35c11 0 11 0 10 2-2 2-16 0-17 0l-1-2h8Zm-10-4v7c-1 3 17 4 20 3 5-2 6-7 2-9 0 0-19-2-22-1Zm1067 30 39 19v2l-2 2-53-26 2-4 14 7Zm29-70 43 20-31 66-7-4-47-23 32-63 10 4Zm-12-8-36 74v3l29 15c32 15 30 14 31 11l18-37c10-23 18-35 16-39a591 591 0 0 0-51-24c-4-2-6-4-7-3Z" fill="#ebebeb"></path><path d="m1756 526 37 18-4 11-41-21c-2 0 3-10 3-10l5 2Zm-7-5-6 15c6 4 36 17 45 23 3 3 8-12 9-15-2-4-2-3-13-8-17-8-31-17-35-15Zm-5 23c3 1 5 3 5 4l-2 3-7-3 1-5 3 1Zm-5-4c-1 2-4 7-2 10 2 2 10 7 13 4 2-3 4-7 0-10-2-2-9-6-11-4Zm21 13 6 4-2 3-8-3 2-5 2 1Zm-3-5c-2 1-4 6-4 8-1 4 9 8 11 8s4-1 5-4c2-5 1-6-7-10-3-2-3-3-5-2Zm-19 11 3 2-2 4-7-3 2-5 4 2Zm-4-5c-2 0-3 0-4 4-3 6-3 6 4 9 5 3 7 2 10-2 4-7-4-9-9-12l-1 1Zm45 9q4 2 3 5c-1 2-2 2-4 1l-4-3c2-5 0-6 5-3Zm-5-5c-2 3-5 8-1 11l8 4c3 0 5-5 6-8 0-3-2-3-7-6-4-2-6-3-6-1Zm-18 10 3 2-3 5s-8-4-7-5l3-5 4 2Zm-6-6-4 4c-1 5-1 7 4 9 5 4 6 4 8 3s5-6 5-8-1-3-4-5c-3-1-6-5-9-3Zm-15 13-2 5c-1 1-7-4-7-4l2-5 7 4Zm-9-7-2 4c-3 5-2 6 2 9 7 5 9 4 12-3 1-4 1-5-5-8l-7-2Zm49 10c2 1-1 5-2 5l-3-2-3-2 2-5 6 4Zm-6-7c-3 1-3 0-5 5s-1 6 4 8c4 2 5 3 6 2 3 0 6-6 5-8 0-2-1-3-5-5l-5-2Zm-21 12 4 2c0 2-1 4-3 5l-6-4v-3c1-3 1-3 5 0Zm-6-6c-1 2-5 9-2 12 2 2 9 6 12 4l4-8c0-2-1-3-7-6-4-2-6-3-7-2Zm24 15c3 2 3 2 2 5l-2 2-6-4 1-6 5 3Zm-7-6c-2 0-3 6-3 9s3 4 6 6c5 2 7 2 9-2s2-6-1-8c-2-2-9-6-11-5Zm-936-68c3 3 3 12 0 15h-4c-1-2-2-6-1-10 1-5 4-7 5-5Zm-3-4c-13 6-3 37 8 17 2-6 1-19-8-17Zm1033 7c4 2 3 8 0 11-1 0-6-3-6-1-1 1 3 4 5 4l-3 5c-2-1-7-4-7-2-2 2 4 3 5 5l-5 7-3-1c-3-3-6 0-2 3l2 1-5 7c-1 0-5-3-5-1-2 1-1 2 2 3l1 1-4 7c-1 0-6-4-6-2-1 1 0 2 2 3l2 2-3 6-7-3c-3 2 4 5 5 5-1 3-4 7-8 9l-11 10 5-14c2-10 4-14 16-32 21-30 22-34 30-33Zm-4-4c-10 2-35 44-41 54-6 12-4 19-11 33-4 6-4 7-4 9 1 6 4 0 7-4 13-18 18-12 29-33 9-16 22-31 29-44 4-8-1-16-9-15Zm-718 10c5 2 10 9 13 15 6 9 4 38 0 46-5 14-37 15-49 8-7-3-11-8-12-18-1-12-2-34 3-41 5-6 13-13 16-10l-2 10-2 6v4c-1 11 7 15 17 15 15-2 19-11 12-25-2-5-2-14 4-10Zm-5-4c-6 3-4 10 0 21 7 14-18 19-23 9-6-7 5-22 2-27-5-10-24 8-25 14l-1 24c-1 23 4 36 26 39 12 2 29 2 38-7 8-5 11-39 6-52-5-10-13-23-23-21Z" fill="#ebebeb"></path><path d="M1114 577c1 2 2 6 5 4 3-1 2 2 3 4v1l-8 4-5 2c-2 0 1-19 5-15Zm12-3c1 2 3 2 4 2 7 0-5 7-5 6-1-1-2-11 1-8Zm-2-4c-2 1-3 3-3 5s-2 3-4 1c-1-3-5-4-7-2-4 2-6 16-4 21l8-1c9-3 11-3 13-8l3-2c7-4 9-10 1-11l-3-2-4-1Zm-139-43c7 6 0 19-4 25h-2c-2 0-8-6-10-9-5-6-5-16 4-8 2 2 4 3 6-1s3-8 6-7Zm-3-3c-3 1-6 6-6 8-4-3-10-6-13-2-6 6 7 20 13 25 4 3 6 2 11-6 3-5 5-10 4-15 0-6-4-12-10-10Zm981 0c-8 0-33 10-28 13 1 1 1 0 3-1 15-10 40-12 56 0-2 0-5 0-5 2 1 1 2 2 7 2l5-1-1-11h-2l-1 6c-8-8-23-11-34-10ZM888 534c4 4 3 16-3 17-10 1-7-24 3-17Zm-6-4c-9 4-9 24 1 25 4 0 7-2 9-7l1-6c1-8-5-15-11-12Zm551 80 11 1h2c-1 3-3 3-9 3s-8-1-8-4c-1 0 0 0 0 0h4Zm-1-17h14v13c-2 2-13 1-17 0l-2-12 1-1h4Zm9-28h2l2 9c1 2 2 12 1 15-5 2-14 1-19 0 0-5 0-10 2-16l2-9 10 1Zm-8-11h11v6h-14l-1-6h4Zm6-4 3 1h-9l-2-1h8Zm-1-14c1 1 2 9 1 10l-6-1c0-1 1-12 5-9Zm-4-4c-6 4-3 14-6 15-3 3-2 2-2 8 1 9 2 9 0 18-3 7-3 12-2 27 2 17 1 18 14 18l8-1c7-6 3-21 4-34 0-10-3-12-4-19 2-2 1-1 2-7 0-7-1-7-5-10 1-7-2-18-9-15ZM773 635l35 3c1 0 1 6-1 6l-20-3-51-6c-1 0-1-5 1-4l36 4Zm12-94 33 4-1 7-8 83-73-8 4-34 5-50 1-5c0-1 5-1 39 3Zm-41-7c-6 26-9 86-13 103l1 1 46 6 27 3c9 1 6-1 8-18l9-86-4-2-74-7Z" fill="#ebebeb"></path><path d="m762 547 47 5-1 15c-19-1-38-3-56-6l2-15 8 1Zm-11-5c-2 3-2 17-3 19 0 3 0 3 16 5 14 1 44 6 46 4l2-12v-8c0-2-6-1-12-2l-49-6Zm6 30h6l-2 7h-13v-4l1-4 8 1Zm-10-3-2 4v9l17 1c3 0 4-10 4-12-2-3-2-2-8-3l-11 1Zm37 5 4 1-1 9-14-2 1-8h10Zm-12-3-2 7v7l13 1 5 1c4-2 3-10 4-14-2-2-1-2-8-2h-12Zm33 6 4 1-1 7h-9l-1-1v-8l7 1Zm-8-4c-2 0-2 1-3 7l1 7 10 2 6-1 1-7v-6l-15-2Zm-38 21-1 6-13-1 1-8 13 1v2Zm-15-6c-2 1-2 14-1 14l14 1h4l1-7v-6l-17-2h-1Zm38 6 5 1-2 7-14-2-1-2 1-5 10 1Zm-14-4-1 10 1 2c1 1 4 2 13 3h7l1-1v-12l-12-2h-9Zm35 6 4 1-1 7-9-1-1-3c1-6-1-5 7-4Zm-8-3c-2 0-2 7-2 10l1 2 15 2 1-10c0-3 0-3-7-4-6-1-7-2-8 0Zm-42 19 5 1-2 9-13-1 1-11 9 2Zm-9-4h-1l-1 1-2 6c-1 7-1 6 1 9l17 1 2-8c1-7 1-8-3-8s-10-2-13-1Zm32 7 7 2-2 8-12-1-1-3c0-1 0-8 1-7l7 1Zm-10-4c-2 1-1 3-2 8l1 7 11 2 8-1c0-1 4-11 1-13l-6-2c-5 0-11-2-13-1Zm32 6 6 2-1 8-11-1c0-2 0-11 1-10l5 1Zm-8-4-1 1v15l9 1 7-1 2-11c0-3 0-3-2-3l-7-1-8-1Zm1165-4v1l-4-1 2-1 2 1Zm20-2v3l-2 2h-11c-3 0-3-2-4-4l14-1c2 0 3-2 3 0Zm15-3-11 6v-5l11-1Zm-39-7 2 3v4c2 1-7 1-8 1l-5-6v-2h11Zm25 2v3c-1 1-16 3-19 2l-2-6 7-1 14-2v4Zm15-4v4l-11 2v-7l10-2c1-1 2 0 2 3h-1Zm9-6s-6 15-5 5v-4l5-1Zm-56-4h6l1 9-12-1-2-6 1-3 6 1Zm-11-1 1 6-2-6h1Zm43 1v4c0 3 0 2-5 3l-16 2-1-9 20-2c1 0 2 0 2 2Zm15-3c1 6 1 6-1 6l-10 3-1-8 11-3 1 2Zm11-3c0 4 0 6-2 6l-5 1-1-7 8-3v3Zm-53-6h1v8h-12c-1-1 1-7 2-9l9 1Zm25-2 1 8-21 2v-8l20-2Zm-40 0h2l-2 9h-2c-2 0-1-4-1-7 0-4 1-2 3-2Zm55 1 1 4-10 3-2-5v-4l10-2 1 4Zm12-7 1 7-8 3-2-9 7-4 2 3Zm-50-6-1 10h-9l4-11 6 1Zm-10-1-4 9-2 1-3-1 4-10 5 1Zm30 0 2 9-19 2 1-10 12-1h4Zm13 0 3 6-9 2-2-4-1-5 7-2 2 3Zm10-6 4 6-4 3-4 1-3-7v-2l5-2 2 1Zm-39-6-3 9h-5s13-18 8-9Zm-5 0c-2 1-6 9-8 9l-4-1 10-9c3-2 4-3 2 1Zm31-3 8 5-5 2-8-9 5 2Zm-19-3 6 9c2 5 2 5-1 5l-11 1s6-18 6-15Zm11 3 7 8-6 2-1-1-5-10c-2-2-3-3 0-2 2 0 2 0 5 3Zm-12-6c-51 9-40 86 12 78 51-10 39-85-12-78ZM933 615l-13 8-26 15c-27 14-40 23-46 20l84-44 1 1Zm-17-12 13 8-80 42 1-14c1-6 3-9 7-11l1 7h5c19 1 36-7 48-21 2-2 1-3-1-7l-3-3 2-1h7Zm-39-31 31 39c-1 5-20 17-27 18l-20 3-8-62 2-1c4 1 12-2 13-5l1-1 8 9Zm-11-13c2 4-9 8-12 6-1-2 9-8 12-6Zm-4-4c-5 1-10 5-11 9-3 4 1 34 5 60-4 3-8 6-9 11l-2 26c6 10 51-22 71-31 18-11 26-11 18-20-4-3-15-11-21-11l-8 2-7-9-27-32-5-5h-4Zm507 8c2 1 4 4 7 13 9 33 14 24-25 35-30 9-26 4-34-20-1-8-3-15 2-18l7-2c30-8 33-10 43-8Zm-11-4c-4 0-32 8-39 11-9 3-8 11-4 26 9 35 17 22 49 16 14-4 17-5 19-7 4-4 4-7-3-30l-7-14c-3-3-7-3-15-2Z" fill="#ebebeb"></path><path d="M1368 571v6l-2-7c0-2 0-3 1-1l1 2Zm-4-7c-4 2 0 24 7 16 2-3 0-19-7-16Z" fill="#ebebeb"></path><path d="M1357 571c1 4 2 10 0 9-1-1-3-9-2-10q1-1 2 1Zm-3-5c-5 3-1 18 3 18 8 1 5-23-3-18Z" fill="#ebebeb"></path><path d="M1346 574c3 11-1 10-2 2v-3l2 1Zm-2-5-3 2c-1 3 0 14 5 15 7 1 5-20-2-17Zm-8 9c1 2 1 9-1 5 0-1-2-7 0-7l1 2Zm-3-6c-2 1-2 2-2 6 0 6 3 10 5 10s5-4 4-10c-2-4-3-8-7-6Zm-9 7 1 8-3-8c0-2 2-3 2 0Zm-3-4c-4 1-1 9 0 12 2 4 6 6 8 2s-1-20-8-14Zm51 15 1 8c-2-1-4-15-1-8Zm-3-5c-4 3 0 17 4 17 3 0 3-2 3-6 0-7-2-15-7-11Z" fill="#ebebeb"></path><path d="M1362 594c1 5 0 9-1 5-2-5-1-14 1-5Zm-3-8c-1 1-2 2-2 7-1 7 2 12 5 12 6 2 5-22-3-19Z" fill="#ebebeb"></path><path d="M1351 594c2 2 2 6 1 9-3-3-3-15-1-9Zm-3-5c-3 0-2 10-1 13 2 3 5 5 7 3 4-3 2-20-6-16Zm-8 6c1 1 2 8 0 9-1 1-1-2-2-6 0-4 0-4 2-3Zm-4-4c-2 3-2 12 1 16 3 2 6 1 7-2 1-4 2-13-4-14h-4Zm-7 8v7c-2 1-3-15 0-7Zm-3-5c-1 1-2 3-2 7 0 12 10 12 9 2 0-5-2-9-4-10s-2 0-3 1Zm406 99c2 4 2 5 0 7-8 8-32 22-46 27l-34 10c-1 0-2 0-4-3-2-5-2-5 3-5 21-2 63-22 79-37 1-2 1-1 2 1Zm-3-7c0 14-112 59-76 31 6 5 19 0 42-11 14-8 22-10 17-18 4-1 17-4 17-2Zm-41-10c7 5 23 15 22 16 1 4-42 25-52 23-4 1 4-20 6-29l2-1 6-3 16-6Zm-24-8c7 2 7 12 0 14-12 3-11-16 0-14Zm57-1-24 10-5-2 23-12 6 4Zm-39-13-1 3-6 2v-3l7-3v1Zm46-5v1c4 2-35 19-37 21l-18 7v-5c16-7 52-26 55-24Zm-29-2 1 4c1 0-7 5-7 3l-1-6c-1-1 6-4 6-4l1 3Zm18-6-6 3-4-4 5-3 5 4Zm-3-11 2 1-30 15c-27 12-23 15-19 2l41-20 6 2Zm-12-5h1l-37 19v-1c1-7 21-14 28-18h8Zm-66-8 2 2c-5 17 1 39 16 48l-2 6v2c-15-9-25-29-21-47l3-12 2 1Zm21 2c5 8 7 14 0 14-1 1-7-8-10-15 8-4 5-10 10 1Zm-26-7q1 1-1 5c-4 11-5 24-1 34 3 12 14 22 24 30 1 2 5 4 8 5l-2 6c-38-15-54-50-30-85l2 5Zm56 1 5 9-7 4-17 7-7-17 7-4 15-7 4 8Zm-6-12v1l-22 11-1-3 22-11 1 2Zm-35-4c11 3 6 20-5 17-13-2-8-22 5-17Zm25-13 7 12c-7 3-16 7-22 12 0-6-2-11-7-14l-3-6-3-6c5-4 19-11 21-10l7 12Zm-10-19 1 3-21 11-2-5 20-11 2 2Zm-2-5c-5 1-8 4-15 7-7 4-9 5-9 7l9 18c-5 1-9 2-12 6s-6 7-10 15c-15 27-7 58 21 75l15 8-5 16c-7 7-14 10-9 20 4 8 5 9 9 9 29-6 57-19 81-38 4-4 4-6 1-13l-2-4c0-6-15-4-23-1q-1 1-3-1l-6-4 15-7c10-4 12-6 3-12l4-2c7-3 9-5 9-8 0-4-2-6-5-6-10 2-38 17-55 25-3-5-9-7-14-5-14-8-21-27-17-44l1-2 5 6c4 8 6 11 9 12 3 0 7-1 8-4l2 3c-6 6-2 9-4 17-4 10 2 8 9 4 1 4 1 6 4 6l10-5v-7c3-2 3-3 4 1 1 7 2 8 9 4l6-4-3-9 3-2c2 3 5 7 7 7l9-4c3-3-1-6-4-8 3-2 7-4 4-6-1-2-10-6-12-6l-4-3-9-1-33-59c0-2-1-2-3-1Z" fill="#ebebeb"></path><path d="M1645 603c3 5-4 7-5 2 0-2 3-4 5-2Zm-5-4c-10 6 2 19 9 10 3-6-3-13-9-10Zm13 24c-2 2 1 6 4 4 3-3-2-7-4-4Zm11 51c1 1-1 3-2 2-2-1 0-4 2-2Zm-4-4c-5 3-2 12 4 10 7-2 3-13-4-10Zm-677 37c6 3 33 10 43 13 8 2 10 3 12 2h3l-5 10c-4 8-7 9-17 7-7-3-45-15-44-21l3-13 5 2Zm68-7c1 1-3 6-5 7v-4l4-6 1 3Zm-62-3 53 6v14c-4 3-9 1-15-1-12-4-41-9-48-14l3-5h7Zm36-35v9l-3 3c-2-4-2-13 0-18l3 6Zm34-25 4 3c-5 1-11 4-12 8-1 2-3-5-3-7 1-4 7-8 11-4Zm-36-3c3 0 3 3-1 9q-3 4-4 0l-1-6c1-4 1-4 3-4l3 1Zm-1-8c14 3 16 1 12 14-2 7-3 16-2 23 1 6 5 13 9 21 6 11 6 11 3 16l-58-7c-2 0-2 0 0-2 2-6 28-8 34-11 12-6 12-16 4-27-3-5-2-3 0-7 9-13 4-17-7-17-1-5-3-5 5-3Zm60-9c2 7-3 17-11 20-1-4 1-10 4-15l6-8 1 3Zm-41-23c13 2 24 6 34 13-9 3-11 6-22-2-4-2-15-7-18-10l-2-2 8 1Zm-12-2 1 1c2 6 7 7 12 10 7 4 16 11 22 11 4 0 13-5 14-3l-1 3c-16 15-4 29-14 21-6-5-10-5-15 0-6 6-1 16 2 22 2 7-2 19-6 25-12-20-9-29-4-50-1-8-10-8-18-10-7-1-7 0-4-3 5-6 10-14 9-23q0-5 2-4Zm-19-6c15 3 17 9 11 23-4 5-6 11-12 8-5-2-14-9-14-11l3-4 5-17 7 1Zm-16-6 6 3c-1 8-4 15-8 22l-14-8c0-6 4-19 11-19l5 2Zm-10-4c-4 3-7 8-9 18h-1c-2-1 0-12 2-15l6-4 2 1Zm-10 0c-4 4-4 9-4 15-4-4-4-11-1-15 1 0 9-3 5 0Zm-45-10 25 10c11 3 10 3 10 4-1 3-4 1-8 0-7-4-39-14-36-16 1-1 3 0 9 2Zm-10-6c-4 2-5 6 0 9l44 16c3 11 16 18 28 23 6 5 14 14 21 14l3 11c-2 6-2 10 2 15 2 4 1 4 1 9-2 5 0 14 1 19-7 4-29 5-34 10s-12 19-14 30c-1 5 1 7 7 10 11 5 42 21 53 17 9-4 16-24 15-32 5-2 10-9 8-14l-4-4-1-1-2-6c3-5 6-14 6-18 3-13-5-21 12-25 16-5 22-13 21-27l-2-3c-9-18-42-23-60-25-3-3-12-6-18-6l-3-1c-8-5-30-16-38-5l-32-12c-10-4-9-4-14-4Z" fill="#ebebeb"></path><path d="M1026 729c1 1 0 2-1 2-2 1-3-2-2-3l2 1Zm-5-4c-7 5 3 15 8 8 3-4-3-11-8-8Zm523-128c4 3 8 8 11 13 4 5 7 13 5 13s-7-6-11-11c-3-4-13-21-5-15Zm-6 0c3 11 10 21 20 29l-7 8c-2 3-3 4-5 4-2 1-26-29-24-34 1-4 3-6 10-8l5-1 1 2Zm59-28 8 11c2 4-3 5-12 11a86 86 0 0 0-29 27l-1-2c-4-8-12-19-18-23 24-5 29-7 45-21l5-4 2 1Zm-10 1c-33 34-104 5-46 68 7 6 11 2 19-8l14-18c2-4 7-8 11-11 6-5 27-17 24-20 1-1-10-17-14-17l-8 6Zm-345 32 12 4-2 10-16-7c-3-1-2-7-3-12l9 5Zm44-7c0 4 0 5-3 7l-27 14 2-9 25-16c3-2 2 0 3 4Zm-11-14 9 4c4 1-17 12-23 15-5 2-7 3-10 2l-16-8c5-4 23-13 26-14 4-1 5-1 14 1Zm-11-6c-5 1-34 16-33 18v16c2 5 18 10 21 11l2 1c3-2 30-13 35-20v-15q0-4-13-8l-12-3Z" fill="#ebebeb"></path><path d="m1267 584 1 1-2 3 1 2c1 1 0 2-2 3-3 2-4 2-5 1 0-3-6 2-7 1-4-3-3-4 1-5v-2l-1-1 4-3 2 2c3-1 5-4 8-2Zm-5-1-2 1-3-1-6 3v3l-3 3c1 3 6 6 10 4 2-2 2 3 7-1 8-5 1-5 4-7 3-4-3-6-4-7l-3 2Zm614 58c0 21-9 32-13 11l-1-15 12-1h2v5Zm-4-9c5 2-7 2-9 1-4-2 6-2 9-1Zm-3-39h7v37c-3-3-9-3-14-2v-36l7 1Zm-17-4c-2 1 0 3 2 3 4 0 4-1 4 5v21c1 34 2 42 7 47 4 4 8 2 11-3 4-1 4-49 4-68l5-1-1-2-16-2c-10 0-15-2-16 0Zm-702 74v3l-1-2v-2c1 0 1-1 1 1Zm16-3c-2 3-5 4-7 1 0-1 8-3 7-1Zm23-3c-1 5-6 4-7 0l7-1v1Zm24-3c-1 5-6 2-7 0l3-1q4-1 4 1Zm12-2-1 3-2-2 1-2 2 1Zm-2-8q0 3-2 4l-72 11-2-3 1-2 56-8 14-3c5-1 5-1 5 1Zm-73-11 3 17-7 1-3-24 6-1 1 7Zm12-8 3 23-9 1-3-23s8-2 9-1Zm10 5 2 17h-5l-4-23h3l2-1 2 7Zm15-2c0 4 2 14 1 16l-10 2-3-23 10-1 2 6Zm8-7 4 22-7 1-3-23 6-1v1Zm13-2 2 14 1 8-8 1-4-22 7-1h2Zm11-1 3 21h-7l-4-21h8Zm-1-8-1 4h-6l-67 10-2-2c-3-4 70-11 72-13l4 1Zm-59-2c1 6 2 6-3 7h-5l-1-5 4-2h5Zm25-1v2c0 1 1 1-6 2l-5 1v-5h5l5-1 1 1Zm21-3c0 4 1 3-4 4l-4 1-1-5 4-1 5 1Zm-4-4c-1 0-8 0-8 2v3c0 4 0 4-2 4s-3 2-3-1l-2-5h-9l-8 2v3c1 5 1 5-2 5-4 1-3 1-4-3q-1-7-9-5c-5 1-6 1-8 3l2 8c-1 0-12 1-10 3l3 20 4 26c1 3 2 4 5 4 4 0 5-1 4-5v-3l2 1 4 4c4 1 8-1 10-5 0-2 0-2 4-3s4 0 5 1c3 6 10 7 13 1 2-5 0-4 5-5q5-1 6 1c2 5 10 6 12 1l1-3 2-2c3-1 0 7 5 6l5-1v-7l-4-26c-3-16-2-17-5-19l-9 2-1-3c-1-6-4-5-8-4Zm133 54c1 4 1 5-2 8-3 2-12 7-15 4l-3-4 1-1c5 0 13-3 16-7 3-1 3-2 3 0Zm-8-17 6 11c-5 6-13 10-21 10l-7-14 1-1c6-1 15-6 19-10l2 4Zm-9-14 5 6c-5 6-12 10-20 11-2-4-2-10 2-14 3-1 11-7 13-3Zm-7-12 1 8c-10 4-9 7-15-5 14-2 11-10 14-3Zm-6-4c-2 2-5 3-8 3l1-1c2-1 10-5 7-2Zm-3-4c-4 2-10 5-9 9 0 3 4 11 8 14-3 3-3 8-3 11 3 7 14 36 23 34 3 0 6-2 11-4 14-9 6-17-1-31-7-13-10-17-14-18l-1-3-5-11c-2-2-6-2-9-1Zm189 22c3 8 11 6 11 15 0 4 2 33-2 36-2 1-13 3-22 3s-9-1-10-7c-2-8-2-23-2-34l1-2c2-4 11-4 11-12h11l2 1Zm0-18 1 2 2 8-1 3-12 1c-4 0-5-1-5-3v-10l8-1h7Zm-13-4c-3 1-4 1-5 4l-1 3v7l1 1c-1 2 2 5 1 7 0 2-1 2-4 4-6 3-7 6-8 13l2 31c1 5 3 9 8 9h20c11-2 13-3 14-11l-1-36c-1-5-8-7-9-10-2-1-3-1-1-2 5-4 1-10 1-14 0-8-12-6-18-6Z" fill="#ebebeb"></path><path d="M1494 645c2 1 2 2 2 13q0 12-2 13l-20 1c-4-1-3-25-2-28l22 1Zm-24-4c-5 1-3 35 2 34l1 1c9 0 26 0 26-5l1-7-1-18c-1-3-2-4-4-4l-13-1h-12Zm471-30c-5 1-7 2-7 3l5 11h2c2 0-1-7-2-8l2 1c15 9 39 11 54 0 2-2 3-3 2-4 0-1-2-1-5 1-4 3-7 5-11 6-11 3-30 0-39-6l5-2v-2h-6Zm-518 32 10 11c5 7 6 51 5 51 0 1-1 2-6 3-13 2-27 3-31 2-4-2-5-3-6-9-1-14-6-41 6-50l6-8 12-1 4 1Zm-1-9v4c-4 1-12 2-14 1v-9h2c12 4 12-5 12 4Zm-3-9c4 2-3 3-7 2-3 0-4 0-3-1 3-2 8-2 10-1Zm-9-3c-8 2-6 9-6 17l-1 4c-7 9-13 11-13 24 0 12-2 44 9 46 5 1 15 1 29-1 11-1 13-2 14-7 1-3 0-28-2-41-1-17-16-16-15-32v-7l-1-1c-2-4-10-4-14-2Z" fill="#ebebeb"></path><path d="m1427 662 3 34c1 2-20 2-22 3-4 3-4-27-5-35 3-1 24-5 24-2Zm-7-4c-11 1-20 3-20 4-1 0 0 39 5 40h7c30-1 21-1 20-28-2-9-1-12-4-15 0-2-7-1-8-1Zm-60 1c-1 4 1 6 3 2 1-2 2 0 4-1-2 5-8 12-11 17-2 5-3 4-1-1 3-6 3-13 4-18 0-2 1 0 2 0l-1 1Zm9-5c2 0 1 1 0 3-2 4-1 1-3 0v-2l2-1h1Zm7-26-3 3v1c1 2 0 4-2 3l-1 1c-1 2 2 2-1 5l-1 3c-2 0-1 5-3 5-1 0-2 1-1 2l-2 4c-1-1-2-1-1-2 0-2 8-18 12-22 2-3 5-8 3-3Zm6 0c0 3-2 6-6 16l-5 9-1-2h-1c2-5 1-3 4-4v-5c1-3 3 0 4-2 0-2-2-2-1-4s2-1 3-1v-3l1-3c1-4 2-4 2-1Zm-6-6c-5 1-21 30-21 40l-3 12-2 7c1 6 6 5 10-3 8-10 20-34 24-45 3-6 0-14-8-11Zm465 13 1 1c1 2-4 2-5 2 0-4 0-4 4-3Zm-94-3 1 4c-3 1-7 1-6-1-1-2 3-5 5-3Zm58-5c18 1 28 1 29 7 0 3-4 12-7 14-8 5-19 3-26-4s-17-10-21 1c-2 6-5 5-11 5-14 1-15-8-19-22 14-3 41-3 55-1Zm-34-5c-5 1-25 1-25 6h-1c-3 0-8 5-7 8 1 4 7 4 12 3 1 6 5 11 9 13 5 2 21 4 24-5l3-5h4c4-1 10 7 14 9s8 3 15 3c9 0 13-4 17-12 2 0 8 0 9-3 2-4-1-8-6-7-1 0-2 0-2-2-10-10-51-7-66-8ZM687 744l-1 11c-3 2-8 1-13 1-6-1-5-2-5-5 8-5 16-12 21-18l-2 11Zm4-24-1 5c-7 9-12 16-22 21l2-16 18-15q4-4 3 5Zm1-21v7l-22 19 1-14 6-5c5-3 13-11 16-14l-1 7Zm2-17-1 4c-5 7-14 15-21 20l1-7 1-7 20-17v7Zm-4-14h5c-2 3-18 19-21 20l1-12 1-8h14Zm-6-19 12 2-1 13h-20v-7l2-9 7 1Zm24 1q0 8-6 11c-4 3-4 3-3-4l1-8 7-4c1-1 1 0 1 5Zm-40-7 5 4-2 15-6-6c-2-4-2-5-1-10 1-7 1-7 4-3Zm23-14c12 2 12 2 14 6s2 6-2 9c-5 3-6 3-11 3-9-2-20-1-24-9l-1-3 7-5c6-3 6-3 17-1Zm-14-4c-4 1-11 5-12 7-2 2-3 4-4 10v12c1 4 7 11 10 13l2 1c-2 14-9 69-9 88 7 4 19 6 26 1 2-27 7-59 8-89l2-1c5-3 9-5 11-9v-18l-1-2c0-3-2-6-4-8 1-2-26-7-29-5Zm282 7c4 1 12 3 11 5s-2 5-5 3c-4-1-5 0-7 3-3 6-14 24-14 30 0 3 1 4 8 6 12 4 8 4-1 18-12 19-24 34-25 34s-2-3-2-20l-3-40c1 0 13 2 15 1 3 0 3 0 7-9l6-14c5-12 5-13 0-15-2-1-2-2-1-4l2-1 9 3Zm-11-6c-3 1-6 7-3 9l4 3-6 16-5 10c-2 5-1 5-8 4-15-1-11 0-11 8 5 49-9 92 37 21 7-11 8-15 5-18l-13-6 14-30 2 1c5 3 10-3 10-8 0-3-2-4-14-8-10-3-11-3-12-2Zm993 34c4 1 10-1 15-2l6 5 19 19-20 1h-56l28-26 8 3Zm46-4-1 26-27-26 28-15v15Zm-82-14 25 14c1-1-24 20-29 26v-2l-5-42 1-1 8 5Zm37-5 41 2-10 5c-33 17-24 17-56 0-23-14-31-10 25-7Zm-49-6-1 1 6 54h87c1 1 4 0 5-1v-49l-48-3c-27-1-47-4-49-2Zm-328 65c17 6 1 20-9 9-1-2-1-1 1-2 7-4 2-10 8-7Zm-14-9c6 3 9 9 5 12-3 4-12-3-14-7-3-6 2-8 9-5Zm17-4c5 1 15 7 11 11-1 2-5 3-6 2-5-4-8-4-13-5 1-1 6-5 5-6 1-3 1-2 3-2Zm-13-8c9 4 9 8 3 13l-9-6-2-1c0-4 1-10 8-6Zm34-2c5 3 4 7-2 13-3 4-4 4-6 1-2-2-2-4 0-7s2-4 2-7h6Zm-21-8c3 1 8 4 10 7s-1 7-2 10h-2l-8-3-1-1-6-5c0-1 2-5 1-6 0-4 4-3 8-2Zm-18-5c6 1 9 6 6 11-3-1-7-2-10 1-10-7-8-16 4-12Zm29-4c5 2 10 6 5 11-2 4-2 4-4 2-2-3-8-6-10-7 1-5 3-10 9-6Zm20-2c10 4 3 11-2 17-5 0-5-1-9-2l1-2c3-6-2-8 0-10 3-4 6-5 10-3Zm-29-4c5 2-1 1-3 8l-1 3c-9 1-4 2-11-3l-1-1c0-7 9-10 16-7Zm15-7c2 1 8 3 8 6l-2 2c-2 0-4 3-5 5l-8-5-5-4c4-4 5-5 12-4Zm-8-4c-2 1-6 4-6 6l-2 1c-6-1-17 0-18 8-1 3-1 2-4 2-12-2-15 11-4 17l1 3c0 1 0 6-2 6-7 2-5 11-1 15l9 6 2 2c1 3 8 8 13 7 6 1 11-4 11-9 0-2-1-3 2-4 7-2 5-6 7-7 3 0 12-10 11-16l1-2c3 0 11-10 11-15s-7-10-12-10c2-7-13-11-19-10Z" fill="#ebebeb"></path><path d="M1583 647c-1 1 0 3 1 2h1c0-2-1-3-2-2Zm-23 8c0 1 2 3 3 2 1-2-2-4-3-2Zm35 4v2c4 0 2-4 0-2Zm-16 2c-1 2 3 3 3 0 1-1-3-2-3 0Zm-30 1c-1 3 2 4 2 1l-2-1Zm19 9v2c2 1 3-1 2-2h-2Zm16 8c0 1 0 2 2 2l1-1-1-2-2 1Zm-32-1 2 3c2-1 0-4-2-3Zm18 11c-1 2 3 5 3 1l-3-1Zm-22 3c-2 3 4 3 3 1l-3-1Zm16 10 2 2c1 0 2-3 0-3l-2 1Zm-294-42c2 3 2 9-3 8-5 1-11 2-12-4 0-1 0-2 2-3 2-2 9-3 11-3l2 2Zm14-3c3 1 5 2 5 5s-3 4-9 5l-5 1v-2c1-9-9-9 9-9Zm-14-3-13 3c-6 1-8 8-3 13 3 2 3 2 10 2 12 0 23-3 27-5 4-4 2-10-4-13h-17Zm-171 62 15 2c-7 21-47 136-53 149l-4 5-9-11c-5-8-5-9-6-14 0-6-2-7 0-13 2-7 1-11 5-18s2-14 6-21c3-4 3-9 7-14l6-13 4-8c5-5 2-12 7-19 2-4 1-10 5-13l4-8c0-2 0-6 2-6l11 2Zm21-53c6 2 11 6 11 14 0 10-8 29-11 35-1 3-2 3-8 2l-25-3c-3 0-1-1 0-4 5-7 6-11 8-20 2-16 10-28 25-24Zm-10-4c-12 3-17 14-19 28-1 8-2 12-7 18-4 5-3 5-1 8v4l-4 8c-5 5-3 10-6 15-4 5-2 13-6 17-4 5-5 16-10 21-4 5-4 11-7 16l-3 10c-1 9-7 13-7 23-1 5-3 11-2 16 1 6 0 10 5 16 22 34 18 15 44-53 15-41 25-76 32-88 7-5 11-22 15-32l1-14c-4-10-15-16-25-13Z" fill="#ebebeb"></path><path d="M1121 671c7 2 0 16-3 19-2 3-4 3-8 2l-6-3c-1-2 0-5 2-9 4-8 8-12 15-9Zm-8-4c-6 1-15 17-12 23l3 3c9 4 14 4 18-2 9-13 8-27-9-24Zm626 46v2l-8 4c-3-2 7-7 7-7l1 1Zm20-17c0 5 4 11 6 14l-18 9c-3-3-7-10-6-14l18-10v1Zm4-1c1 3 3 10 7 11v1c-2 1-6-4-6-7l-1-7v2Zm36-3-22 12c0-5 4-6 10-9l10-5c0-1 3 1 2 2Zm-4-6-18 10c-3 2-3 3-4 6 0 4-3 0-5-2l-2-6h3c2 4 20-7 24-8h2Zm-3-4-10 5-10 5-4-1 23-12 1 3Zm5-8c6 5-2 2 2 9 1 2 3 3 5 3l1 2c-1 2-1 2-3 0-4-2-13-19-5-14Zm16-3c2 5 5 10 9 13-3 2-2 1-4-1-4-7-9-4-15 0l-1-2 4-3c8-5 6-7 3-12l2-2 2 7Zm6-2c2 2 5 10 4 12l-6-9c-2-6-4-12 2-3Zm-8-8c-4 2-6 3-4 8 1 2 0 4-2 5l-3 2c0-2-4-6-5-6-3-1-6 1-7 3 0 2 1 1-16 10l-33 18c-4 2-3 4-3 7l-11 7-1 4-24 12v3c2 1 6-3 14-6l13-6c2 2 9-3 12-4 2 1 4 4 6 4l26-12 32-17c3 0 4-6 3-8q-1-1 1-2c7-4 5 9 14 5 4-2 4-3 4-6 1-6-8-27-16-21Zm-594 62c3 2 6 2 16 2 11 0 13-1 17-3v13c-1 2-2 2-6 3-9 2-21 2-26 0-3 0-3-6-4-17l3 2Zm23-7c21 6-11 6-16 5l-6-2c4-4 16-5 22-3Zm-14-20h17c6 7 7 12 7 21-8-7-28-8-35 0-1-1-1-10 1-10 4 2 14 3 20 3 5-1 13-2 11-5 0-2-1-2-5 0-6 2-14 2-21 1-4-1-4-1-2-5l2-4c1-2 2-1 5-1Zm-2-20c7 1 17 1 22-2v17c-6 4-20 3-27 0v-18l5 3Zm-1-8c5 5 19 4 21 0 1-2 6 3-6 5-4 1-22-1-17-6 1-1 1 0 2 1Zm15-3c5 1 4 2-1 3-4 0-10 0-11-2-2-2 10-1 12-1Zm-14-3c-8 2-9 3-8 14v12c0 4-1 6 2 7l-2 5-4 6c-1 2-2 7-1 15 1 14 1 17 3 19 0 4 24 4 29 2 8-1 9-2 10-6l1-14-1-15c0-4-1-6-4-10l-2-3 3-2-1-20c0-1 2-3 0-5-4-6-18-6-25-5Zm594 62c8 3 19 9 25 16 4 4 5 5 1 5-7-1-21-9-28-16-5-5-6-7 2-5Zm-8 3c7 10 27 22 37 22l-1 26h-2c-2 1-62-25-63-32-3-3 16-15 27-21l2 5Zm41-44 11 5-5 4-9 17v30c-9-9-22-17-32-19q-3-1-2-2l10-5c13-8 14-9 18-17 10-14 2-18 9-13Zm-7-9v7c0 7-6 16-9 20l-25 16c-24 14-29 18-31 21-1 2-2 5-1 7 11 13 53 30 65 34 4 1 6 0 7-4a465 465 0 0 0 2-65l8-15 4-4c3-2 4-3 2-5 0-3-17-14-22-12Zm-992 26c8 2 7 7 7 13l-2 3c-3 5-8 4-13 1-3-2-3-2-3-6-1-7 4-12 11-11Zm-97-1c4 1 6 8 7 13-3 6-13 6-18 1l-1-3c0-9 4-15 12-11Zm34-16c9 1 18 4 26 8l-50-5c5-5 17-4 24-3Zm0-4h-1 1Zm-5-1-3 1c-6 0-14 1-18 3-1 1-5 2-4 5 3 3 8 2 28 5 31 3 35 4 36 3 3-5-4-6-11-9-14-6 10 3 13 4 5 2 6 2 11 2 9 0 29 5 37 9 3 1 3 2 3 7l-1 7h-12c-2-2 2-11-3-15-6-6-19-4-22 4l-1 11a1004 1004 0 0 1-72-5c0-6-4-13-9-15-5-3-12 0-15 6l-1 10h-5l-5-5c-3-3-3-4-3-10 0-5 0-6 2-7 12-5 42-13 55-11Zm-14-3c-11 1-30 6-41 10-2-1-8-3-8-1-1 2 3 3 4 3l-1 2v14l3 4 3 4c-2 4 8 3 10 4 5 6 18 8 23 1l5-1c24 3 49 4 73 4 6 4 16 6 19-1h17c3-2 3-2 3-9l-1-8c-6-8-32-11-42-12-6-1-8-1-20-6-20-7-29-9-47-8Zm516 13c7 4 10 6 6 10-1 2-10 0-16-3 8-6-1-12 10-7Zm-16-6c6 1 6 2 6 4 1 2 1 4-1 6l-3 1-9-4c-2-2-3-3-2-6 1-2 4-2 9-1Zm25 0c1 2 2 5-1 6h-1l-10-5q-1 0 0 0l10-3 2 2Zm11-3c5 3-4 6-6 7l-1-2-2-5h9Zm-11-3c-8 1-12 3-17 5l-12-3-6 1c-3 2-4 7-3 9 5 7 15 9 23 13 8 2 12 2 15 0 2-2 3-6 2-8v-2l3-1c10-4 15-9 7-14h-12Zm-98 24c-1 2-8 3-15 4-5 0-7 1-7-2v-1c7 1 17 0 22-4v3Zm-5-10c9 3-2 8-11 8-4 0-6 0-5-1 2-1 11-5 11-7h5Zm-8-3-1 2-21 9-2-3c6 0 17-4 22-8 2-1 2-2 2 0Zm-2-5-7 5c-3 1-15 6-14 4 2-3 16-11 21-9Zm-5-4c-8 3-28 10-18 22 2 3 9 0 11-1 2 0 1 7 4 8 2 1 27 1 27-7 0-5-2-10-5-12l-7-2-2-2c-1-6-5-6-10-6Zm440 84c2 2 4 4 2 5l-4 1v-4c0-3 0-3 2-2Zm-5-26v27l-2 18c3 3 9 3 11 5 6 7-9 10-14 9-8 1-24-4-14-10l9-3c3 0 4-2 2-3v-43h8Zm6-45c2 8 6 28 1 31-2 3-10 7-12 6l-6-6c-4-7-3-14 3-22l13-12 1 3Zm-5-5c-10 7-23 24-15 36 2 5 6 9 10 10l-3 1c-5 1-5-2-5 23v23c-8 1-17 7-13 13 4 8 27 10 36 2 8-6-1-13-9-15v-3c1-5 0-5 4-5 10 0 4-13-3-13v-23c-1-2-4-3-6-3 10-3 17-10 16-21l-4-24c-2-3-4-4-8-1Zm-130 104c-3 3-2 4-1 6 5 14-16 20-19 5 0-7 6-12 13-10 2 0 4 1 6-1 2-3 3-2 1 0Zm-125-26v1c-1 1-4-2-3-3s3 0 3 2Zm32-19c7 16 9 36-14 27-11-5-12-5-11-6s10 3 13 4c6 0 12-4 12-10 0-5-4-14-3-20l3 5Zm-7-14c2 3 1 5-2 4-2-1 1-7 2-4Zm-60-25c-6 1-3-1-1-3l2 3h-1Zm9-10-1 3-3-2 4-2v1Zm6-8-6 3-7 4c-3 4 4 8 6 8 3 0 5-6 5-8s0-2 2-3c4-3 5-2 11 3l29 34c-3 6-1 8 5 10-3 8 10 22-1 26h-8c-4-2-8-1-12-1-1-4-3-6-7-6-4-1-34-27-39-38-2-3-1-7 1-10 7-1 15-1 9-8-3-3-4-4-6-3-1 1-4 4-4 6l-3 5c-2 3-2 8 0 12 7 12 26 29 38 38 2 1-2 3 2 6 3 4 4 2 7 3 2 2 6 2 10 4 12 5 16 8 25 2 33 28 41-35 58-47 27-26 46 9 38 38-2 8-6 18-7 18l-4 4h-3c-5-2-13 1-16 6v12c3 5 6 8 12 8s9-3 12-8c2-3 1-10 0-13 1-1 4-3 2-5l1-4c12-21 12-71-19-69-19 6-26 18-37 40-7 13-9 16-12 19-6 6-13 5-21 0l-2-2c4-7-2-31-9-35v-3c0-3-3-7-6-7l-2-1-14-17c-13-14-18-24-28-21Z" fill="#ebebeb"></path><path d="M1476 797c4 3-4 11-6 5 0-3 0-5 2-6q2-1 4 1Zm-6-4c-7 5-4 16 4 15s9-15 0-15h-4Zm61-56c-2 21-15 18-17 0l10-1 7-1v2Zm-2-27 2 21-18 3-2-23 17-3 1 2Zm-7-17c4 2 6 8 6 12l-17 2 1-9c3-5 7-6 10-5Zm-6-3-7 6c-3 16-1 54 10 58 12 5 16-8 16-25-2-19-1-43-19-39Zm388 67c1 4 2 6 5 7h2c-2 3-10 5-11 10-5 9 6 21 1 21h-5c-2-3-6-40-6-39l14-2v3Zm52-21c1 3 0 9-1 9-2 0-1-15 1-9Zm-8-4 4 1c-2 3-2 9-1 13h-7c-1-2 0-7 1-12 0-4 0-3 2-2Zm-72-2 1 6v14h-3l-3-1c0-3-3-15 1-18l4-1Zm37-4-1 9c0 7 0 9 4 14 1 3 3 4-1 2-6-1-20 0-28 1h-5l-3-25 1-2 35-3-2 4Zm33-12c-5 12-8 38-5 51l-17-11-3-1c-2-7-6-11-5-18 0-6 1-13 4-13 8-2 19-7 27-11l-1 3Zm12-7c11 17 6 55-7 63l-2-1c-6-3-5-13-6-20 6 0 15 2 16-3v-13c0-3-10-4-13-5 1-7 6-25 12-21Zm-9-2-18 10c-17 5-15 4-36 5-13 1-20 1-19 6-4 1-7 1-8 4-3 4-1 19 0 21 2 5 9 2 11 4l7 1 5 36c1 5 4 7 8 7 14-1 3-12 3-19-1-10 12-9 13-16-1-5-8-2-7-8v-2c22 1 37 24 45 20 19-8 20-84-4-69Z" fill="#ebebeb"></path><path d="M1978 708c-8 9-11 11-7 12 1-1 14-13 11-13-1-1-2-1-4 1Zm-757 79 67 75-17 14-9-10v-2c3-3 1-6-2-3l-2 2-14-16c-1-1 8-7 5-8-1-2-7 4-8 5l-13-15 2-1c3-2 1-5-2-2l-2 1-14-16 3-4c-1-4-4 0-6 2l-14-16c1-2 5-5 3-7l-6 4c-2-2-13-14-12-15 1 0 5-4 1-4-1-1-3 3-4 3l-13-15 2-2c3-4 0-6-3-3l-2 2-12-14 4-4-2-1-4 3-11-13 17-15 68 75Zm-70-79c-4 6-12 11-18 17l-1 2c2 5 8 9 19 23 6 5 103 115 119 130 2 0 3-1 11-8l11-10c-12-16-35-39-76-85-36-38-60-72-65-69Z" fill="#ebebeb"></path><path d="M1153 724c1 3-4 5-5 2 0-2 3-4 5-2Zm-6-3c-2 1-1 2-2 3l1 4c1 3 5 3 8 2 6-5-1-14-7-9Zm166 26c2 1 3 3 8 11q11 16 8 19c-3 3-13 13-17 11-5-2-20-23-20-27-1-2-1-3 3-5 4-1 9-5 12-7 2-2 3-3 6-2Zm-7-6c5 4-17 15-17 14l-2-4 2-1c4-1 11-4 15-8 1-2 1-3 2-1Zm-6-10 3 6c0 3-15 11-18 10l-9-14c6-2 17-6 19-9l5 7Zm-17-15c3 4 6 5 10 5-3 4-10 6-17 8l1-14c4-2 3-2 6 1Zm-6-5c-8 5 1 7-6 21l4 6c6 9 8 14 8 15l4 5 1 2c0 5 4 12 13 23 8 10 12 11 18 7 3-3 13-9 15-13 1-3 1-5-5-15-8-11-9-16-15-18-6-1-1-3-6-7-3-2-10-16-12-18-1-2-2-2-4-2-7 0-9-11-15-6Zm294 31c3 6 8 15 3 18-5 1-16-13-17-16l12-7 2 5Zm-17-24c3 2 12 13 13 16l-12 7c-4-6-16-28-1-23Zm-6-4c-8 5-5 10 0 22 8 17 18 27 25 27 12-2 5-18-1-27-7-11-13-24-24-22Zm434 12-9 3v2c2 1 19-4 20-5s0-2-2-2l-9 2Zm-269 105 12 3 4 7h-2l-19-5c-1-1 2-7 3-6l2 1Zm9-12c4 5 2 5-2 4v-4c0-2 1-1 2 0Zm-12-4c-2 13 26 17 15 2-1-1-1-1 2-1 9-1 14 8 6 13-2 2-11 1-14 0-11-3-17-12-8-17l-1 3Zm19-15-5 5 1-2c1-2 6-8 4-3Zm19-14c6 0-3 2-4 3-1-5-1-4 4-3Zm-37-6 16 3c4 0 4 0 4 6v4c-4 2-7 4-9 9l-5 16c-1 5-2 2-3-1l1-7c2-14 1-12-9-21-2-3-13-11-10-11l15 2Zm25-45c14 6 16 23 9 35-10-16 0-13-4-23-4-9-16-6-16 5-1 9 17 29 15 38 0 7-2 12-6 16-3 3-13 8-12 6v-2c2 0 5-3 7-5 9-12 7-26-3-39-7-10-8-12-9-16-2-11 9-19 18-15h1Zm-11-4c-7 2-11 8-12 15-3 8 17 29 16 33l-21-3-14-2-2 2c1 5 3 8 9 13 13 11 12 9 11 17l-1 3c-9 2-10 13-3 18-2 4-6 10-3 11 1 2 26 9 27 5 2-1-1-7-2-9 13-2 14-18 1-21 7-4 12-12 13-20 2-1 17-6 10-10h-5c-7-1-7-1-7-3-1-4-10-17-12-22-4-11 4-19 9-8l-2 7c-1 3 4 16 7 17 5 2 6-5 8-12 5-17-10-36-27-31Zm-983 5 1 3c0 5 2 7 7 7s7-4 10-4c2 0 5 4 5 5v2c-5 5-2 10 5 10 3 0 3 1 3 4s-7 4-7 9c-1 7 8 6 6 11 0 4-8 1-9 8 0 4 4 7 2 8s-2 1-5-1c-5-3-9-1-10 5q-1 4-4 4c-2 0-2 0-3-3-2-8-11-6-14 1-1 2-2 3-4 1-6-1-1-6-4-10-1-2-5-5-8-5-2-1-6 5-7 3l-4-5c3-3 8-4 6-9-1-2-4-5-7-5s-3-2-2-5h7c2-1 4-5 2-7l-4-5q-4-3-3-4c1-8 9 3 15-2s0-10 2-12c4-3 6 6 13 4 6-2 4-8 8-8h3Zm-4-4c-6 1-4 9-9 9-2 0-7-6-8-5-5 0-8 3-6 9v2c-3 6-9-2-14 0-3 1-5 6-4 9l8 9c0 4-7-1-9 4-2 3-1 9 3 9 2 0 6 2 6 4-1 2-8 4-7 7 2 4 7 13 13 7l3-1 4 3v7c2 4 8 7 11 5l4-4c2-3 6-5 7 0 1 3 2 4 4 4 6 2 8 0 9-5l2-5c4 1 8 5 11 2 4-2 4-4 2-7s-1-5 3-6 5-4 5-9c0-2-1-3-4-5-3-1-3-4 1-6l3-4c1-2 0-8-2-9l-7-1c-1-1-1-2 1-4 2-4 2-5-2-9-3-4-7-5-10-2l-6 2c-8 0 1-12-12-10Z" fill="#ebebeb"></path><path d="M740 752c21 5 18 37-4 36-25-2-20-39 4-36Zm-6-3c-26 5-23 42 3 42 31-1 27-45-3-42Z" fill="#ebebeb"></path><path d="M742 763c9 5 2 18-8 13-8-5-1-18 8-13Zm-8-4c-11 4-8 21 3 22 19 0 14-27-3-22Zm110 10c20 0 64 14 20 19-21 3-91-13-45-19h25Zm39-13 1 1-1 9c0 5 1 11-1 9l-1-15c0-4 0-5 2-4Zm-3 5v13l-3-2 2-17c1-1 1 1 1 6Zm-4-7 1 1-2 16v-18l1 1Zm-3 3v14l-2-1s1-28 2-13Zm-4-6 1 1-1 17h-2v-18h2Zm-4-1h1l-1 18h-2v-18h2Zm-4 0v10c0 9 1 8-2 7l-1-1 1-9c1-7 1-9 2-7Zm-3-1-2 17-1-17h3Zm-5-1v9l1 9-3-1 1-17h1Zm-46 9v10l-2 1c0-17 3-31 2-11Zm43-9-1 17h-2v-18l3 1Zm-5 8v9h-3l2-17c1-2 1 0 1 8Zm-33-8c0 2 0 19-2 18l-1-9v-10h2l1 1Zm30 0-1 15c0 1 0 2-2 2v-10c1-9 1-9 2-8l1 1Zm-4 0-2 16v-18h2v2Zm-19 1-2 16v-19h2v3Zm-4 9-1 7h-1v-9l1-9c2-1 1 6 1 11Zm19-9v15c-1 0-2 1-2-1 0 0 2-25 2-14Zm-2-2-2 14-1 3-1-1 1-16 3-1v1Zm-5 1-1 15c1 2-1 1-2 1v-11l1-6 2-1v2Zm-4-1-1 16-1 2c-1 0-2 0-2-2l2-17h1l1 1Zm20-6c9 1 50 9 44 13l-3-1c-26-10-54-13-81-8l3-2c9-4 25-3 37-2Zm-21-4c-7 0-30 3-20 10l1 6-2 19c-6 20 74 25 84 14 2-3 1-3 2-10v-18c27-13-58-23-65-21Z" fill="#ebebeb"></path><path d="M847 775c9 1 16 2 21 5-16 2-33 1-49-4 6-3 19-2 28-1Zm-24-4-9 3c-2 9 30 10 39 11 12 0 25-2 17-9-8-5-36-6-47-5Zm174 33c-5 17-34 14-52 29-19 12-27 16-46 4-12-8-11-8-12-13 9 11 25 20 41 14 11-3 28-16 40-18 17-4 18-6 27-15 2-2 2-3 2-1Zm-3-4c-11 17-23 13-39 20-9 5-32 19-41 17-7-1-21-10-24-16-2-3-1-6 4-11s4-5 4 0v4l9 6c7 3 8 4 10 2 3-1 5-2 13-2 18-1 29-3 40-7 10-4 22-11 24-15v2Zm-16-45c9 8 16 26 14 39-8 13-40 23-61 23h-10c1-44 9-66 55-65l2 3Zm-8-7c1 1 1 1-4 1-42 1-49 29-48 69h-2l2-31c2-29 27-43 52-39Zm-15-7 8 2c-47 5-49 33-51 75l-10-5v-1c0-21 4-41 11-51 9-13 27-22 42-20Zm-12-3c-30 5-44 33-44 64-5 3-11 8-13 13-3 4-4 14 1 17 16 12 28 22 49 11 10-6 24-17 34-18 21-6 37-12 27-32l-1-6c-2-15-6-27-19-38-8-9-20-13-34-11Zm1030 3c-1 3 0 2 7 7 6 2 8 5 11 4v-2c-2-1-17-11-18-9Zm-808 100c-3 2-7 6-9 4l3-2 7-2h-1Zm29-19 3 5-15 10c-7 3-7 3-11 1-5-2-7-1-13 2-4 2-5 2-4 0 2 0 39-21 40-18Zm-61-76 28 48 17 29 1 1-10 5c-5-12-19-36-33-62-9-15-10-19-7-21h4Zm-5-4c-5 3-5 7-2 13 12 23 33 59 40 75-5 4-20 8-15 14l3 4c3 3 6 1 12-3q5-3 6-2c3 1 7 0 15-5 12-7 14-8 13-12-5-14-8-8-18-4l-33-56c-13-21-13-25-21-24Zm338 11 7 8c2 3 2 4-3 8l-16 13v-4c-4-5-9 4-3 5 2 0 1 1 0 1-1 1-11-10-11-10l6-8c11-8 16-16 20-13Zm-6-3c-2 0-14 12-18 16l-5 5c-4 5 9 13 11 15 4 2 5 1 13-5 11-8 15-12 16-15 3-6-6-13-10-16-2-2-4-2-7 0Z" fill="#ebebeb"></path><path d="M1461 755c-1 1 0 5-2 4s-5 0-5 3c0 4 7 4 7 0q0-2 1-1c3 1 5-2 4-4-1-3-4-3-5-2Zm6 6c-4 2 0 8 4 5 3-3-1-7-4-5Zm-17 4c-3 1-3 6 1 6 6 0 5-8-1-6Z" fill="#ebebeb"></path><path d="M1461 766c-4 4 3 9 5 4 1-3-3-6-5-4Zm-16 4c-5 3 1 9 4 5 2-3-1-6-4-5Zm9 3c-3 5 6 8 6 2 0-3-4-5-6-2Zm206 100c2 6-4 13-8 18a64 64 0 0 1-59 16c-6-15-5-8 6-5 22 4 49-9 59-28 2-3 1-4 2-1Zm-19-9 4 2c3 1 3 1 2 4-5 12-30 24-46 21l-6-3c0-5 17-17 20-18q1-1 1 1c3 7 9 3 13-3 2-3 2-4 4-4h8Zm-24-3c-1 1 0 6-3 5-5 2-18 13-21 19-4-8 13-22 24-25v1Zm22-4 4 2c2 1 6 4 2 3l-12-1c1-5 2-4 6-4Zm5-9c10 3 16 11 12 21-8 22-43 36-61 27-18-10-5-30 9-38 5-3 11-7 15-7l-1 4c-45 15-35 55 14 33 12-6 26-18 17-30-11-9-16 1-10-11l5 1Zm3-39 2 1-6 18-6 16c-9 19-12 24-15 26-11 4 17-59 20-61 1-2 2-1 5 0Zm5-12c1 1 4 1 4 3l-4 6c-2 1-4-1-6-1l-3-1v-8c2-1 6 0 9 1Zm20-43c6 1 5 7 3 12l-8-2c-3 2 4 4 6 5l-2 3c-1 0-7-3-7-1-2 2 4 4 5 4-1 3-1 5-5 4-2-2-4-2-4-1-2 2 4 3 5 5l-3 4-3-1-4 1c-1 2 3 3 4 3 1 1-1 4-2 5l-8-3h-2c2-5 15-40 20-38h5Zm-7-4c-8 1-18 31-21 40 0 2-1 2-2 3-3 1-3 2-3 9v5c-6 9-12 26-18 39-10 1-27 13-33 23-5 7-5 13-5 21l7 20c7 3 18 2 26 2 20-3 37-13 47-31 2-4 2-3 0-13l-2-9c-2-9-11-14-21-15 6-11 9-20 12-29 1-5 2-6 3-7l4-8c3-11 30-38 18-47-3-3-9-4-12-3Z" fill="#ebebeb"></path><path d="M1614 884c0 2-1 2-3 2-6 1 2-5 4-6l-1 4Zm-2-6-7 6c-3 6 9 7 12 4l1-7c1-5-1-6-6-3Zm-570-99-8 8c-12 10-13 89-31 94l-2-3-1-7c0-5 0-6 2-11 9-30 19-56 15-79h5c0 5 4 9 9 7 2 0 3-2 3-5l1-3 3-1h4Zm-11-3-2 9c-2 0-3-1-3-5s2-5 5-4Zm-12-18 4 9-5 1h-5l5-12 1 2Zm25 3c2 3 1 11 0 14l-9 1-1-1c-1-4-10-4-11 1l-1 2h-5c-7 0-6 0-6-3 2-3 3-4 12-4 19 0 16-3 16-16l5 6Zm-7-10c-3 0-1 13-1 15s-7 2-9 2c-3-8-6-20-11-14-4 6-7 16-9 23 0 7 6 3 7 5 3 24-7 50-16 77l-1 12c-1 6 1 13 7 14 5 0 9-7 13-18 9-22 7-71 27-86 5-3 6-15 4-19-2-5-6-12-11-11Zm932 1c-2 1-1 2 5 9 4 5 6 10 8 7l-5-8c-6-8-7-8-8-7Zm84 92c2 2 1 3-2 3l-1-1v-3l3 1Zm-7-1v4h-4l1-4h3Zm-8 0c1 2 1 5-2 4l-3-1c0-3 4-7 5-3Zm-9-1c2 3 0 7-3 3l-2-2 4-2 1 1Zm46-22c5 1 5 2 4 8l-4 18c-1 5-2 4-7 4l-2-4c3-3 6-16 6-23 1-4 0-4 3-3Zm-35-11c7 2 9 5 11 12 3 17 12 9 11-6v-5c3 3 8 8 7 11s-2 15-5 22l-4 1-3-1-2-2-4-1c-4 0-6-2-9-1h-1c-3-2-6-1-9 1l-1-1c-3-3-7-1-9 1-2 3-4 1-5-1-1-1 1-2 4-2 3-1 7 0 6-3l-12-1-1-4h5c5 0 6-1 6-2 1-4-14 1-15-5l2-3 12 1 9-1c0-2-1-2-5-2-8 0-16 0-20-4-1-5 26-6 32-4Zm-8-18c22 7 31 10 25 34-1 4-1 0-3-6-2-9-6-12-14-14h-27l-2-5 15-8c1-3 2-1 6 0v-1Zm-9-8c2 8-1 7-10 12l-11 5c-3 0-4-2-5-5l8-5 16-8c2-1 1-1 2 1Zm-7-26c-2 1-2 2 2 8 5 10 5 11 1 14-3 1-28 16-31 14l-5-10-2-5c-1-1-3 0-3 1l6 14c2 5 5 5 10 4 2 7 7 7 14 5l2 4-2 2c-5 1-6 6-1 9l1 1c-1 3-1 8 1 9 3 1 0 6 4 8v3c1 6 5 6 9 9 3 2 5 4 8 3h3l6 1h3c4 0 13 1 15-3h6c3 5 3 6 9 6 0 5 1 8 8 9 5 0 15 3 17 0 1-2-2-2-5-2l-15-3c-2-1-3-4-1-6s2-3 4-9l3-21c2-3 18 3 22 5 3 1 4-2 2-3l-17-6c-4-1-7 0-8 1h-1c0-1-8-3-9-2l-1-2-8-9-3-4c-5-9-19-11-33-15l-2-8c1-4 1-5-3-14-3-5-4-9-6-8Zm-753 23h7c1 7 6 4 5 13 0 6 0 11-2 13-1 3-2 3-10 3s-11-1-12-3c-2-2 0-21 1-22s5-2 6-4c2-2 3 0 5 0Zm-1-11c3 2 8 2 12 2 0 4-1 5-6 5l-9-1 1-3v-3h2Zm7-4c14 4-5 3-7 0h7Zm-6-4c-4 1-5 2-6 6s-2 8-1 9l-1 2c-2 2-6 3-7 6-1 5-2 18-1 21 2 10 14 7 24 8 5-3 7-5 8-14 0-5 1-14-3-16-3-2-3-4-1-5l3-7c2-8-7-11-15-10Z" fill="#ebebeb"></path><path d="m1263 788 7 1v8c0 5 0 5-2 5h-12c-2 0-2 0-1-7 1-9 2-8 8-7Zm-6-4c-2 1-4 2-4 5l-2 16c5 0 16 2 20 0l3-6-1-11c0-3-11-5-16-4Zm284 22c3 2 17 1 19 2-3 5-5 11-6 17l-4 4c-4 3-4 4-4 5l5-1c2-1 3-3 3-1l-7 6-7 6 2 2 7-4 5-4 1 6c1 4 0 7 3 7l1-7c-1-11-3-11 3-6 3 3 5 5 6 2l-10-11 1-8c1 1 5 8 6 7 4 0-4-10-5-12l3-6c2 0 7 3 7 5 2 9 6 40 0 41-1 2-5 4-9 5-16 2-40-6-43-23l-1-4 5-9c3 2 10 8 11 7 2-2 1-3-4-6l-4-3 9-12c3-7 2-7 7-5Zm19-11-1 9h-2l-1-3-3-8 7-2v4Zm-19-5c1 2-1 10-1 12v-12h1Zm-5 0c3 3 0 12-2 14l-4 5c-3 7-11 13-15 19-2 4-1 4-4-1l-4-12c0-5 1-8 5-12l8-10-3 14c0 2 2 2 3 1l4-18 3-1 2 2c0 3 3 13 6 9 1-1-3-5-3-7-1-8-1-6 4-3Zm-8-5-4 1c-2 0-2-1-1-1h5Zm40-2c-1 3-13 6-16 7l-1-4 5-2c7-2 10-3 12-1Zm-32-2 3 4c1 1 0 1-1 2l-4-3v-5l2 2Zm20-6 2 5-7 2c-2-1 3-6 3-7q1-2 2 0Zm-14-2c6 2 4 14 7 20l3 10-2 1c-2-1-7 0-6-2 2-15 0-16-8-26l-3-4 9 1Zm10-1-3 4-1-2c-2-3-2-2 1-3h2l1 1Zm-6-4c-3 0-2 2-5 1-4-1-17 0-11 6 3 2 0 1 0 5l-1 1c-3-1-11 0-11 5 1 8-17 19-14 29-1 3 5 19 8 21 4 10 8 18 18 23s23 7 34 5c17-6 13-14 11-36l-1-14c-1-5-7-6-12-9 1-5 2-10 1-15 11-4 11-14-1-11l-1-1c-3-8-6-12-15-10Zm-881 20-6 5-28 20c-7 5 26-26 31-31l3 6Zm1-13c4 4 10 13 11 18-1 1-3-1-5-4-3-2-16-24-6-14Zm-6-5c-2 1-1 6 0 9-13 14-49 44-43 47l10-6 41-29c2 2 6 6 8 6 2 1 4-1 4-4 1-4-13-29-20-23Zm408 141c9 3 11 21 2 26v-2c2-8-3-16-10-13-3 2-7 8-9 12-4-11 2-29 17-23Zm36-106c11 8 16 2 11 9-16 28-33 69-39 99-3-4-8-7-13-7 10-18 27-65 39-102l2 1Zm4-21v10c2 5 8 6 13 2 2-1 5-8 6-11 5 4 2 12-3 18-6 7-19 2-22-5-2-4 0-10 5-17 2-3 2-2 1 3Zm-1-8c-5 4-12 16-8 23-2 16-28 85-40 107-11 4-15 17-12 28 1 4 6 6 8 1 1-4 5-9 7-10 5-1 6 6 4 11v5h4c7-4 11-14 9-21a295 295 0 0 1 54-125v-8c-2-4-4-7-8-5-1 0-5 15-12 12-2 0-2-4-1-9 1-6 1-8-2-9h-3Zm663 50c6 4 31 7 40-1a24 24 0 0 1-27 34 24 24 0 0 1-15-34l2 1Zm30-5c16 3-3 5-12 5l-14-2c-4-1-4-2 0-3 4-2 21-2 26 0Zm-4-41c-5 9-2 21-1 33l3 2 5 3c-9-2-18-3-26-2 4-3 6-1 6-8 0-6 2-21-2-25l-2-3h17Zm-12-4c-5 0-6 0-7 2-4 1 2 8 3 10l-1 23c-36 16-9 69 25 48 18-11 15-40-4-48l-2-3-1-22c1-2 4-7 3-8 0-4-13-2-16-2Z" fill="#ebebeb"></path><path d="M1796 833c-1 1-1 2 1 3 2-1 1-6-1-3Zm-16 4c2 1 0 2-2 2-3-2 0-4 2-2Zm-5-4c-3 3-2 8 2 9 5 2 10-3 6-7-2-2-6-3-8-2Zm22 11c1 2 0 3-2 2-1-1 0-3 2-2Zm-5-2-1 3c1 3 2 5 6 5l2-2c3-1 3-4 0-6-1-2-3-1-5-2l-2 2Zm-11 6c-2 2 2 4 3 1l-3-1Zm76-60c-1 0 0 11 1 10 1 0 2-1 2-5 0-5-1-7-3-5Zm18 2c-2 0-5 7-5 8l2 1 3-4 2-5h-2Zm-33 0c-2 2 2 9 4 10l2-1c-1-2-4-10-6-9Zm-450 140 7 9-17-2 2-2c3-3 1-3 4-5 3-1 3-3 4 0Zm3-12c2 2 2 2 0 4h-1v-6l1 2Zm-11-11c0 4-3-1-1-1 1-1 1-1 1 1Zm6 3v15c-3 1-4 4-3-3l1-19q2-1 2 7Zm5-24c5 2 7 3 3 7l-10 7-8 3c-2 3-1 6 2 8 2 2 2 3 2 5l-4-1c-13-4-7-14 6-18 7-3 7-5 6-10 0-3 1-1 3-1Zm-11-7-1 2c-1 1-8 0-9-1l1-1 9-3v3Zm5 1c0 3 1 12-1 12l-1-9 1-8 1-1v6Zm16-29-9 6c1-3 9-8 11-8l-2 2Zm23-12c-4 21-28 28-46 34-7 3-15 4-11 9 1 2 9 3 13 3v4c-6 0-18-1-19-4-2-4 0-8 4-11 5-5 33-13 37-20 7-6 6-8 13-13l9-6v4Zm-35-10h36c-2 3-17 13-24 16-10 6-11 8-15 15l-6 2v-1c-2-18-18-7-39-33l48 1Zm16-23c6 2 8 12 7 19l-38-1 3-5c10 3 19-15 28-13Zm0-11c13 3 18 18 20 30h-9c1-9-2-21-12-23-6-2-18 12-24 13-3 0-2-2 0-7 4-9 16-15 25-13Zm-10-3c-11 2-21 14-21 22 1 3 0 2-1 5 0 5-9 2-15-1-1-2-4-11-6-7l2 6c-3-1-5-3-6-2v3l17 6h-27l-2 3 15 16c5 4 9 5 16 8 9 3 8 6 10 12l-1 1c-8 3-11 5-15 8-10 11-3 21 13 20 16 1-5 3-8 11-1 4-1 9 2 12 1 2 7 4 11 5v9c-2 1-11 5-9 7 1 1 4 0 5-1-6 5-4 5 15 7h13c0-1 0-2-2-3l-10-11v-2l4-3c3-4-2-9-6-11v-11c6-4 15-9 10-15l-10-5v-8c11-4 23-9 28-14 6-5 12-21 11-26-1-1 3-4 2-5l-1-3h-1c-1-20-14-38-33-33Zm-834 17c9 2 31 9 35 19 2 4-2 16-6 23 3 6 7-7 9-10l39-4c4 0 6 1 7 4 0 2-1 3-8 6l-52 15c-15 4-18 3-39-4-18-7-21-8-14-24 4-6 13-20 17-23 3-3 7-3 12-2Zm-37-5 15 13-6 10-2-2c-3-4-15-14-13-17s3-5 6-4Zm1-7c4 2 13 9 18 15-3 3-1 2-7-2-9-8-11-10-14-10-5 0-9 8-7 13l15 16-2 4-17-19c-3-4-3-5 0-9 4-5 8-11 14-8Zm-5-4c-3 0-7 4-11 9-8 10-4 10 13 29l5 5c-1 5-4 11-1 15 6 8 25 12 35 16l10 1c6 0 21-4 47-12l24-7c5-2 7-4 7-8-1-3-2-5-5-7-1-2-37 2-44 3l-1-12-8-8c-10-5-35-19-45-8-8-8-21-19-26-16Z" fill="#ebebeb"></path><path d="M573 838c0 7 0 9-2 11s-7 0-9-2c-3-2 4-13 10-20l1 11Zm-1-16c-5 6-14 16-14 22-1 9 15 13 18 4 2-8 1-9 0-17 0-6 0-13-4-9Zm1259-24c-2 2-1 3 2 6l4 3 1-3c-1-1-5-6-7-6Zm52 3c-2 3-4 4-1 6l3-3c3-3 5-5 2-6l-4 3Z" fill="#ebebeb"></path><path d="M1861 834v5c1 2 3 1 4-1l2-4c1 0-7 21-5 24h-7l-2-23c2 1 3 6 4 5q2 0 2-3c1-4 2-6 2-3Zm6-30c18 4 18 27 7 39l-6 12-2 3v-3l3-12 2-11c-1-2-4-2-5-1h-2c-2-4-6-2-7 2-12-9-5 17-5 23l-1 2c-2 0-2-1-3-3 1-6-6-12-8-17-11-20 5-40 27-34Zm-15-4c-21 5-25 31-10 47 3 4 4 9 4 11v3h21c3 0 3-1 4-5 2-9 13-17 14-27 3-21-12-33-33-29Zm-533 35c2 4 12 19 12 22 1 6 1 6-2 2-5-5-14-23-15-25 1 0 3-2 4-1l1 2Zm-2-8-5 4h-2l-1-2 6-3c1-1 2-1 2 1Zm-12-17 8 13-4 1c-1 1-12-25-4-14Zm-4-6c-5 2-1 11 2 16 2 5 3 6 2 7-1 3 1 7 4 8 2 0 2 1 6 8 9 16 9 17 15 23l5 3c2 0 2-1 0-8-1-11-7-17-12-27l-2-6c1-2-1-5-4-6h-1c-1-3-9-20-15-18Z" fill="#ebebeb"></path><path d="M1822 810v3c2 1 11 7 10 2l-4-3-6-2Zm-951 39c0 12-1 54-7 68-2-3 0-54-1-69l8 1Zm-16-1c-8 92-11 84-8 0h8Zm5-1c1 7-3 75 2 75l-1 4c-3 10-8 14-17 15 5-6 4-15 6-23 2-5 4-18 6-44 3-30 3-28 4-27Zm-16 3c0 15-5 63 1 71v4c-2 16-6 18-12 7-3-5 3-1 5-3 4-2 4-81 5-85l1 6Zm9-6h3-9 6Zm18 0h1l-3 1c-7 0-10-2-2-2l4 1Zm-3-14v9h-3c-3 1-3 1-2-4 1-6 4-13 5-5Zm-14-3v13h-5s3-19 5-13Zm-44-10h30c1 1-4 109-4 109l-81-5 3-103v-2l52 1Zm43-5-2 11c-3 4-4 10-5 15 0 2-2 3-3 4v-2l1-27h-46l-42-1-1 2-4 111 77 4c3 11 11 17 22 15 9-3 15-13 16-21 3-7 6-17 7-36l1-33 1-7c2-2-1-7-3-7v-6c0-7-1-8-4-11v-11h-2l-1 9v2c-4 2-5 10-6 16v3l-1-4c1-4 1-13-2-15l-1-6v-6l-2 1Z" fill="#ebebeb"></path><path d="M795 824c20 1 30 1 34 3 3 1 1 7 1 11-1 4 1 4-20 3l-37-1c-3-1-4-1-5-3v-13h27Zm-27-4c-4 1-4 0-4 8 1 11 1 13 5 14 10 4 52 2 59 3 4-1 5-3 6-8 1-16-1-14-22-16l-44-1Zm27 27 1 7c2 2 1-10-1-7Zm-10 1c0 1 2 9 3 5 0 0-2-8-3-5Zm-24 1c-2 2 11 13 12 14 1 0 2-1 1-3l-6-6c-5-5-6-7-7-5Zm46 0-3 5s1 2 2 1c0-1 3-8 1-6Zm-32 1 4 8h1c1-1 1-1-2-5l-3-3Zm39 4c-1 2-3 4-1 4l5-7-4 3Zm14 0c-2 2-12 8-12 10 0 3 1 2 9-4 7-4 8-5 7-7l-4 1Z" fill="#ebebeb"></path><path d="M802 861c21 7 16 40-7 39a20 20 0 1 1 7-39Zm-11-4c-31 7-21 53 11 46 29-9 19-51-11-46Z" fill="#ebebeb"></path><path d="M785 881c8 6 13 9 19 9-7 7-22 2-22-9 0-5 0-3 3 0Zm5-6c1 0 16 11 14 12-4 0-11-4-18-10l-2-4 6 2Zm9-8c8 1 12 11 9 18-6-7-13-12-20-15l-1-1c2-2 8-4 12-2Zm-8-4c-28 10-5 49 17 29 12-12-1-34-17-29Zm-25 2c0 1 4 2 5 1s-5-3-5-1Zm60 1c-7 3-2 4 2 1l3-2-5 1Zm-62 5 3 1h3l-2-1h-4Zm62 2-1 1 2 1 5-1c1-1-5 0-6-1Zm-62 8c-2 2 6 2 6 1l-6-1Zm60 1c-1 1 7 2 7 1 2-1-6-2-7-1Zm-59 6-2 2h3l4-1-5-1Zm58 1c-1 0 7 5 6 3 0-1-6-5-6-3Zm-2 6c-1 1 5 6 5 6 3 0-6-8-5-6Zm-53 2c-5 1-4 3 0 1 3-1 4-1 3-2l-3 1Zm2 6c-2 3-12 8-10 10 1 2 3 1 8-3 10-8 10-8 9-10 0-1-2-1-7 3Zm46-2c-3 1 11 15 14 19 4 0 2-3-3-8l-7-8c-2-3-3-4-4-3Zm-37 7-2 4 5-6-3 2Zm9 0-3 7c1 2 4-7 4-7h-1Zm23 0 2 6 1 1c0-2-2-9-3-7Zm-14 0c-1 1-2 8-1 9 2 1 1-2 2-7l-1-2Zm7 3 1 7c2 1 0-10-1-7Zm1090-99-7 3c-4 5 8 1 9 0 0-2-1-3-3-3Zm99 76v2c-19 2-87 3-98 2v-4l98-1v1Zm-6-9 4 4-94 2 10-11h76l4 5Zm-50-63 44 2 1 53h-75v-55h30Zm-27-3-6 1v59l-12 12-1 4 2 5c3 3 72 1 90 1 14-2 14 3 14-11l-11-12-2-56c-3-2-1-2-10-2-24-1-53-2-64-1Z" fill="#ebebeb"></path><path d="m1939 823 35 2-1 39-58 1-1-42h25Zm-27-3c-3-1-1 31-1 41 0 6 0 5 2 7l62-1 2-3 1-40-3-3c-11 0-48-2-63-1Z" fill="#ebebeb"></path><path d="m1932 841-1 13h-4v-14c0-2 2-2 5-2v3Zm32-3-1 15-6 1 1-19h6v3Zm-16-5v21h-7l1-21h6Zm-8-3-2 5-1 19h-2v-17c-2-1-2-3-5-2-5 0-5 1-6 2l-1 17-4 2c0 1 0 2 25 2 26-1 25 0 25-2s-1-2-3-2v-3c0-4 2-15 0-18l-5-1c-6 0-6 0-6 3l-1 9v9l-3 1v-24l-11-1v1ZM485 841h7c10-2 15 9 17 22 1 14-7 20-18 13s-11 4-19 4c-10 1-12-16-10-24 3-10 13-19 23-15Zm14-23c1 5-9 16-11 17l2-7c1-3 7-14 9-10Zm-3-4c-5 3-10 13-11 18l-4-8c-3-9-4-10-5-8q-1 1 5 16l1 5c-29-1-33 48-8 46 5 0 8-6 11-5 1 0 3 0 5 2l10 3c6-1 10-5 12-11 2-14-5-35-17-35-5 0-3 0 0-3 5-6 7-10 8-14 0-5-2-8-7-6Zm182 17c18 10 33 45 33 62-3 37-41-24-42-44-2-8-3-24 9-18Zm7-5c21 12 36 46 34 73l-5 3c5-24-15-66-37-76 4-2 4-3 8 0Zm9-3c17 13 33 51 31 72l-4 3c0-27-13-62-37-75l7-2 3 2Zm8-3c18 19 28 46 29 72l-5 3c1-29-11-56-32-75l5-2 3 2Zm-4-5c-3 0-30 10-30 13-14 22 18 79 38 80 5 0 14-6 20-9l8-5c2-21-10-54-24-70-7-8-9-9-12-9Z" fill="#ebebeb"></path><path d="M678 841c9 5 27 41 23 50h-1c-12-8-24-36-24-48 0-4 0-3 2-2Zm-3-4c-13 3 18 71 30 55 4-14-19-59-30-55Zm418 86 7 2-2 4-2-2c-4-2-10-7-3-4Zm28-2 13 9h-4c-7-1-11-2-12-4s0-6 1-6l2 1Zm-1-21c2 1-2 11-2 14 0 4-1 1-4 7 0-5 5-20 6-22v1Zm-4-3c-1 5-8 25-5 27v3c-5 7-4 10 8 15 27 10-8 4-22 0 0-2-3-5-5-7 9 1 9-5 12-11 2-2 7-13 9-22 2-5 2-6 3-5Zm-5-2c-1 6-5 20-9 26l-1-1c-1-3-1-4 4-15 2-7 4-12 6-10Zm27-75c4 5 1 8-4 28-9 24-13 41-15 46l-7-3 23-69c1-3 1-3 3-2Zm-3-4c-6 5-3 2-11 26-10 28-11 32-15 49-4 3-4 2-7 10-5 13-6 15-5 18v1s-7-2-8-1c-3 0-3 3-2 6l6 5 3 2h-10v4c2 1 8 4 8 7 1 2 2 2 9 4 18 4 27 5 30 2v-4c-1-2-3-3-12-6l-9-4c-1-1 0-6 2-6h2c1 2 3 2 5 3 3 1 19 5 19 0 0-2-2-4-15-13l-3-3c0-5 5-16 0-20l14-45c6-21 12-30 2-35h-3Zm684 9c-2 2 0 3 5 3l5-1c0-1-1-2-4-2h-6Zm68 2c-1 3 1 2 5 3l5-1c3-4-9-3-10-2Zm-422 71 2 1-1 6h-6c-3-2 0-9 5-7Zm46-10c0 2-2 12-2 5 0-4 3-14 2-5Zm-28-33c0 1-1 1-1-1v-1c1-2 1 1 1 2Zm-17-5v-2 2Zm-2-5-2 2-1 1-5 2c-5 4-14 35-9 45 4 7 9 4 8 8 0 3 2 4 4 5-1 8-1 18 4 21 6 6 15 3 21-3 5-4 12-23 16-32 5-6 4-3 5 2l1 2c1 4 4 4 6 0 3-5 4-13 2-16-3-6-7 0-8 5-6 0-8 2-13 15-5 12-8 17-12 22-10 9-19 6-19-9-1-10 3-2 7-8 1-2 2 0 5 0 8-1 11-6 17-25 2-10 4-17 1-24l-5-6-1-3c-1-3-3-4-5-3l-2 5c0 8 0 8 3 8 2 0 4-1 5-3 7 7 1 19-2 33l-6 12c-2 2-8 4-8-1 0-3-1-4-4-5-5-1-7-1-9 1s-3 2-5 1c-3-2-5-6-4-12 0-7 5-33 12-34l1 2c1 3 3 6 6 5 1 0 2-1 2-7l-1-6h-5Zm-167 119c15 21 19 22 13 27-3 4-7 6-12 7-3 4-27-29-27-36 6 1 14-5 17-9l9 11Zm-16-18c3 2 4 4 4 5 0 2-9 8-12 8s-4-5-5-9c2-1 7-3 8-5 2-2 1-1 5 1Zm-5-7c0 3-8 8-11 8l-3-1 1-1c4-1 10-5 11-9 1 0 2 1 2 3Zm-64-87 8 7c-2 2-4 3-2 6l48 66 2 1 3 2c1 4-14 11-11 4 5-2-44-71-44-73l-4-1c-2 1-3 0-3-2v-10c0-2 1 0 3 0Zm-5-4c-4 2-1 15 0 18 2 3 5 1 7 2l42 66 1 3-1 7 8 7 3 8c2 4 0 6 4 11 3 8 13 22 19 27 5 5 8 6 14 3 7-4 17-9 10-19-9-11-24-35-34-40 0-4 0-5-3-8l-4-3-4-1-24-32c-13-19-26-34-23-35 3-3 3-4-2-8-8-6-11-7-13-6Zm-236 14c-2 15 9 8-17 9-27 0-37 0-53 6-8 3-10 4-13 3-10-4-7-20 4-18l5 1c15 5 24 5 42 4 10-1 23-3 27-5h5Zm15-6c-2 2-6 6-6 8 0 5 5 5 9 6v3c-1 2-6 2-9 2-3-3-6-6-6-8-1-7 6-13 12-11Zm-7-3c-13 8-30 9-49 11-13 0-21 0-31-4l-8-2c-8 0-13 5-13 13 0 6 4 10 8 12 9 3 17-5 26-6 9-2 38-3 56-3l3 2c10 3 14 4 19 1 4-4 5-11-2-11-12-1 8-9 1-13h-10Z" fill="#ebebeb"></path><path d="M894 869c2 2 1 4-2 4s-5-2-4-4c2-2 5-2 6 0Zm-6-4c-9 5 2 17 8 10 6-5-1-13-8-10Zm784 21h-1c-3-1-1-5 1-7v7Zm13-19c3 2 3 1 3 6l-2 19c-3-2-7-1-11 0l1-9c0-16 0-17 9-16Zm15-3 54 4-3 40-65-3-1-9c4 4 5 1 5-8l1-13c1-6 0-7-2-9l-1-2h12Zm1-7 61 4-3 54c-23-2-72-6-81-5v-15l4-1v13l19 3 52 2 2-7 2-39-2-2a977 977 0 0 0-70-2c0 1 0 2-1 1h-3l1-6h19Zm-22-4-1 3-1 8-1 2c-5 3-2 9-5 10-6 3-8 11-1 14q2 0 2 2c0 6 1 3 3 5v14l1 2 82 5c5 0 5 1 5-10 2-19 3-43 2-47 0-3-1-4-6-4-28-2-59-4-80-4Z" fill="#ebebeb"></path><path d="m1702 868-1 14v17c1 1 2 1 3-1l1-28-1-2h-2Zm9 1-2 15c0 12-3 18 2 16l1-16c1-14 2-16-1-15Zm7 0-3 29 1 3c2 0 2-1 4-16 1-17 1-18-2-16Zm-22 1-1 12v13h2c1-1 2-24 1-25h-2Zm28 1-3 25c0 2 2 3 3 1l3-25c0-1-2-2-3-1Zm13 0-5 29h3l4-27c1-2-1-3-2-2Zm-7 0-2 16c-2 12-2 12 0 13 2 0 2-1 3-15 1-10 3-15-1-14Zm15 1-4 14c-1 9-3 13-2 15h3l5-28-2-1Zm-559 40c4 10 25 21 27 33 2 9-5 22-13 28-2 1 0-2 1-3 20-24-7-40-17-53l-2-6c1 0 3-1 4 1Zm-15 2c1 12-9 22-13 34-2 9 0 16 8 23q4 4 2 3c-28-11-7-40-1-60 1-4 0-3 4-3v3Zm50-8h-1 1Zm-5 0h-20l10-1 10 1Zm-31-1c3 5-6 2-11 2-8 0-7 0-5-3l8 1h8Zm8-2c-1 4-1 8-3 3-1-1 2-5 3-3Zm-13-11 2 9h-2l-1-2-2-8c-1-4 0-9-4-7l-1 9v8l-4 1v-19l9-2 3 11Zm-7-30c7 3 7 14 1 16-5 2-10 0-12-5-3-6 4-14 11-11Zm-6-4c-11 4-12 17-3 23 0 18 2 34-6 47-12 27-12 45 19 52 1 0 2 0 2-2q0-2-2-3c-27-17-15-26-4-48l2-16h3c2 6 3 10 8 14 11 11 12 12 16 19 5 10 3 15-5 25l-5 7c0 4 4 3 11-1 20-16 18-38-4-54l-9-9c-1-2 1 1 4 0 1-1 0-4 3-2h26c2-1 3-4 1-6 2-3-22-2-29-2-1-3-5-4-6-1h-3l-4-13-2-9c0-2 3-5 2-8 1-9-8-15-15-13Z" fill="#ebebeb"></path><path d="M1173 868c2 2 0 6-3 5-4-1-1-7 3-5Zm-3-4c-8 1-7 13 1 13 9 0 8-14-1-13Zm687-2c-12 1-13 1-11 4h13c12 0 13 1 12-3l-14-1Zm5 16c-1 3-4 2-6 0h6Zm5-7-2 3h-6c-6 0-7-1-10-3h18Zm-20-4-3 4 6 5c3 1 2 3 4 5 4 4 10 3 11-2l1-2 5-5c1-5-1-5-13-5h-11Zm-503 8c3 1 3 4 0 1s-3-3 0-1Zm-6-7-2 3 5 8c5 5 12 0 8-5l-11-6Zm-701 6c11 3 15 12 17 24 2 14 23 32 31 44 3 8-1 11-6 7-3-1-4-4-8-12-6-12-14-22-23-30-4 0-9-4-13-8-8-7-13-28 2-25Zm-6-3c-13 6-7 23 4 32 6 6 10 5 16 12 10 9 16 25 22 34 13 14 26-1 7-19-10-11-18-22-21-28-2-8-3-18-8-22-5-8-14-11-20-9Zm-60 77c10 4 57 6 68 1v3c-2 16-2 23-12 32-10 8-10 9-10 18h-24c4-18-11-14-18-27-4-6-6-14-6-22v-6l2 1Zm43-7c8 1 18 1 23 4-22 5-44 4-66-1 7-3 33-3 43-3Zm-58 1c5 4 5 29 8 36 4 11 11 20 20 25 1 4 38 3 42 4 5 2 12 4 14 8 0 4-11 4-68 5-35 0-62 3-47-9 19-14 6-53 23-67l3-3c1-1 3 0 5 1Zm-45-7c7 5 14 12 19 19-9-3-14 3-18-2-3-1-5-16-3-19l2 2Zm76-19c3 6 18 13 28 15h1l-18-1c-6-2-9-4-12-10-2-5-2-5-1-8l2 4Zm7-4c9 3 16 9 20 15-6-2-22-7-25-15l-1-2 6 2Zm1-6c15 2 19 7 21 17-6-6-11-11-22-15l-3-1c-1-1 1-2 1-1h3Zm-11-1c3 1 1 2 0 3l-4-2 3-3 1 2Zm-2-9-1 3c-1 3-10 11-13 11h-1l7-8 8-6Zm-6-3h3c-6 4-13 11-15 16-1 1-1 2-3 2-5 1-11 12-12 24-1 5-1 5-4 6-7 0-10 5-11 10l-9-9 46-52 5 3Zm-8-13c2 1 3 4 2 5l-1 2-47 53-11-9-1-2c4-13 31-43 45-45 5 0 10-6 13-4Zm-5-3-9 4c-14 0-49 39-49 51-1 11 1 30 16 25h5c14 2 9-6 15-12 2-1 2-1 0 1l-5 14c-2 9-2 38-8 42-2 3-13 12-11 14 2 12 27 7 61 8 54-3 67 1 65-10-2-6-14-11-22-11v-4c1-15 21-8 21-45 0-10 1-9-2-11-6-6-69-10-73 1-4 13 0 30 9 38l10 7c3 3 4 4 4 8l-1 4-7-3c-25-17-11-56-28-61l-2-1 1-3c1-7 5-19 12-19 4 0 8-2 12-5l2-1 3 3c-3 3-2 3 0 7 2 8 6 12 11 14 3 1 25 6 27 0 3-3-2-17-6-23-3-3-9-5-18-6-4 0-5-4-8 1l-3-4c2-8-4-10-10-12-1-1-1-8-3-10-2-1-7-3-9-1Z" fill="#ebebeb"></path><path d="M553 951c0 3-2 4-3 3-1-2 2-7 3-3Zm-2-4c-7 2-5 13 2 10 6-2 4-13-2-10Zm763-4-5 4c1-1 6-7 5-4Zm5-15 4 3c6 26 21 65 38 101-23-32-39-69-48-107-1-3 3 1 6 3Zm39-10-2 2h-2l4-2Zm-27-8c30 16 54 42 75 73 8 12 8 12-9-5-21-20-46-45-65-59l-5-11 4 2Zm-13-12 7 15c3 6 9 17 10 22l-7-5c-5-4-15-10-23-18-4-3-4-4-4-5 1-1 13-13 17-9Zm-19-13 7 10 1 3-4 2-6-7c-1-3-5-10-1-10l3 2Zm-6-6c-7 4 3 18 7 23 1 0-2 1-3 5-1 2 2 5 9 11l3 4c3 22 8 10-4 24-3 3-4 6-1 6l8-3c4-3 3-2 5 2 11 33 29 79 54 95 2-1-5-7-4-8-12-30-33-74-40-103l4 1c8 6 11 4 7-5l-3-6c18 14 65 63 82 77l3 4c2 3 2 5 4 3l-3-6-2-4c-14-27-33-51-56-72l-5-4c-2-1 8-7 6-10 0-3-11 3-14 4-7-5-22-14-24-13l-2-2c-3-7-7-10-14-7-5-7-10-19-17-16Z" fill="#ebebeb"></path><path d="M1319 908c-1 3 3 3 2 0l-1-1-1 1Zm-7 4v2c0 2 3 1 3-1l-3-1Zm31 10c-2 1 0 3 1 2 2-1 0-4-1-2Zm-23 15v3c4 0 3-5 0-3Zm455-57s-11 20-5 18l2-4c6-16 4-8 3 7l-1 38c-1 2 31 3 38 4l11 1-2 2c-4 3-4 4-3 5h2c2-1 8-6 8-8v-5c-1-1-7-9-8-4l6 6-47-4 7-10c2-1 3-3 4-1 5 10 10-4 14-10 4 10 10 0 15-7l4-5c1 1-1 11 2 10l1-8c0-8 1-7-2-9-2-1-9 2-10 4v1c1 2 5-1 6-1 0 1-10 15-12 15l-2-5c-2-1-3 0-7 6l-5 9c-5-11-11 1-16 7l1-45c1 2 4 11 5 10l2-2-4-13c-2-4-4-4-7-2Zm225 22c3 1 9 7 12 14 5 8 6 13 4 17-2 8-40 33-40 42l-1 2c-1 0-5-4-7-8-4-4-39-61-29-55 10 5 53-18 61-12Zm9 0 9 14c0 1-1 1-3-2-2-5-7-10-10-14l4 2Zm9-11 4 1c0 5 5 8 9 10 0 8 0 8 3 14l-11-1c-2 0-2-1-3-2v-1l7-2v-2h-9l2-1c5-4 2-7-2-3-3 3-3 2 0-2 1-3 4-5 0-6l-4 6-3-3 3-11 4 3Zm-5-10-5 16-6 1c-12-3-13 0-45 10-9 3-12 4-16 3-2 0-6-3-8-1-4 6 30 64 40 70 3 1 5 1 6-3 3-7 8-12 22-23 18-15 22-18 18-32v-2l2-2 10 1h7c1-4-5-9-3-15 1-3 0-4-2-5-11-4-5-10-11-11-4 0-5-1-6-5-1-3-2-4-3-2Z" fill="#ebebeb"></path><path d="m1963 932-4 2c-1 0 5-4 4-2Zm22-15-7 3c-1-1-2 0-2 1l-4 4c-4 3-4 4-6 3-13-2-16 18-1 7l3-1 2 14c0 4-1 8 3 6v-9c0-8 0-10-2-13v-1l7-6 8 9c3 0 1-3-2-6l-2-5 8-3c6 0 10 5 9 10l1 4c2 0 2-2 2-5 0-10-8-15-17-12Zm-409 34c0 7-6 0-7-2h2c3 0 5-3 5 2Zm-1-55c4 9 10 31 7 42-3 7-11 8-17 7-8-1-12-6-18-24l-6-19 32-7 2 1Zm-19-5 3 3-10 2c0-2 3-6 6-6l1 1Zm-13-9c-16 3-19 6-19 12 5 27 14 54 22 94 1 3 2 4 3 3s1-1-2-15l-20-79c-1-7 1-8 15-11 7-2 7-2 8 0 0 2-5 5-5 11-11 4-9 2-6 13 6 17 9 34 24 39 2 0 2 0 3 2l7 6 2 2c3 6 0 15-1 22-1 2 5 11 6 13 1 1 3 1 3-1l-2-4c-4-7-4-7-2-14 2-6 1-13-1-18l1-2v-8l1-1c3-2 4-4 5-7 4-12-2-36-7-45l-3-3-13 2v-1c0-2-5-5-7-5-4 0 2-9-12-5Zm327 7c13 3 21 19 14 32-8 18-36 15-41-4a23 23 0 0 1 27-28Zm-11-4c-16 2-26 22-18 37 7 16 29 20 41 7 19-18 3-48-23-44Z" fill="#ebebeb"></path><path d="M1863 895c0 3 4 3 3 1 0-4 8 1 9 2l-1 2c-2 3 0 6 2 2l1-1 3 7-1 2c-2 0-2 2 0 3l1 2-3 4h-1c-3-3-4 1-1 3-1 1-9 6-8 3 0-3-1-4-3-3v4l-9-2 1-4c-2-1-3 0-4 1l-4-6q0-2 2-2c2-1 2-3-1-3-3 1 2-10 2-9l2 1c1 2 4-1 2-3l-1-2c2 0 10-5 9-2Zm-4-4c-31 11-7 54 18 34 16-14 1-39-18-34Z" fill="#ebebeb"></path><path d="M1861 901c-3 2-3 5 0 4l1-1c0 4-1 9 3 10l2 1v2c0 2 0 2 3 1 2 0 3-1 4-3l-2-4c-3 0 0 2-7 0v-5h3c1-1 1-2-1-4-2-3-4-4-6-1Zm-1377-5c2 5 3 23 2 31s-3 15-1 23l3 21 5 28c-3 6-9-2-10-7-5-21-2-55-17-65-2-8-5-22-3-29 2 2 4 21 8 19l1-1c2 0-1-31 3-10 2 8 3 13 7 9l1-11c0-5-1-12 1-8Zm-3-5c-3 1-2 13-1 18l-5-16c-7-5-6 9-5 14 0 3 0 1-2-3 0-6-4-17-8-8-2 8 0 23 3 33 13 13 10 21 14 45 2 16 1 24 10 30 4 2 7 1 9-2v-6l-3-22c-6-30-6-30-4-41 2-7 2-49-8-42Zm427 63 1 4c2 3 5-3 7-6 4 6 1 14-6 14s-10-11-4-15c2-2 2-2 2 3Zm5-4-2 2c0-1 1-3 2-2Zm1-5c1 0 2 1 1 2l-3-2h2Zm-5 0c-3 2-7 3-9 7v11c2 4 5 7 10 7 11 0 14-14 9-20l-1-1h2l2 8c1 12-14 18-21 11-8-8-3-22 7-24l1 1Zm10-15h4l-6 12-5-1 2-11h5Zm119-33 5 2c0 2-1 6-3 6l-9-1c-4 0-3-4-3-7h10Zm-32-1c4-2 0 23 0 30-1 5-1 6-4 7s-12 0-47-3c-19-1-38-3-56-9-4-2-8-7-9-14l-2-5 7-1c28-3 88-6 111-5Zm-28-4c-33 1-65 4-91 6-3 0-3 2-2 8 5 17 11 19 25 23l-1 12c-16 0-22 23-8 31 18 11 35-14 19-28 2-2 7-14 8-13l59 5 18 35c2 2 4 1 3-2l-18-32h7c7-1 8-1 10-3 4-6 3-29 4-38l13 1c0 8 1 11 13 11 5 1 7-1 9-5 2-3 1-6 0-7-20-5-42-3-68-4Zm1121 149c-4 6-3 10 6 7 5-2 4-1 1 3-4 6-14 11-21 13l-10-5 3-11c5 6 14-3 22-9l-1 2Zm-48-18c3 1 7 2 8 6l-5 13-2 7-16-7 5-12c3-7 5-8 10-7Zm61-9c3 10-6 22 0 21 1 2 8-6 11-7-2 17-15 36-32 39-1 0-1-1 1-1 6-2 13-7 17-12 3-5 4-9 2-11 0-2-8 2-10 2 1-3 7-11 3-12-1-1-3 0-8 4-8 7-11 9-13 9l-2-1c-3-2-5-1-6 3l-3 9-1 1c-3-7 5-22 10-25 1 7 5 6 11 2 7-4 12-11 17-21 1-3 2-3 3 0Zm-86-25v2l-17 38-6-3 1-27c6 9 11 2 19-10q2-4 3 0Zm8-36 4 11-9 20c-2-9-7-2-10 4-4 6-6 10-8 11-1 1-2 1-4-1-5-7-7 0-8 10l1 16h-1c-4-3-7-12-7-17-2-9 11-24 12-33l4 9 3 5c2 1 4-1 7-6 3-6 3-14 0-19 8 6 11 6 13-7 1-6 1-6 3-3Zm61-19 31 13-36 84-2 2c-3 2-3 2-3 0-1-4-4-6-8-1-6 5-10 15-10 24l-12-6 7-19c1-5-1-8-8-11-12-3-12-1-19 15l-2 5-20-9 48-112 34 15Zm-36-19-10 22-8 21-1-2c-2-4-4-8-8-9-5-1-4 15-6 16l-4-2c-7-6-9-4-7 4 3 7 1 14-3 19-2-5-6-20-10-14-2 5-2 8-7 15-9 12-9 28 0 40 1 2 2 2 7 5l7 3 2 1c46 19 81 41 84 37l1-2 14-7c8-8 19-26 16-38-3-2-4 0-9 3l-3 3c1-3 2-5 2-11s-1-13-5-13c-2 0-3 1-5 5-2 6-6 12-10 16l34-79c0-6-1-2-34-18-21-8-34-16-37-15Zm-442 47c5 8 12 12 20 12-3 6-11 17-15 20-8 11-17 4-26-6-2 1 9-19 17-32 1 2 2 5 4 6Zm34-40c17 9-2 32-9 46-3 4-3 2-7 2-9 0-17-9-20-17 10-13 23-38 36-31Zm-10-4c-14 5-45 58-48 66v6c8 7 15 17 26 12 10-4 49-65 43-71-2-10-13-16-21-13Zm86 68c1 2 3 5 1 5l-6-5 4-3 1 3Zm-41 0c-1 1-7 6-7 4l4-8 4 3-1 1Zm22-31-3 1c-2 1-3 1-3 3s6 0 8 0l-1 2c-3 5-10 0-7-4 2-2 4-2 6-2Zm1-6c3 0 6 3 6 5l-1 1c-3 0-6-7-13-2-10 10 9 21 12 7 1-2 0-2 2-2 3-1 0 6-1 7-4 5-12 6-17 1-7-8 2-22 12-17Zm52-7 2 4-13 4-5-2 4-4 12-4v2Zm-51-5c6 2 11 6 14 11 1 4 1 4-2 5q-3 1-5-2c-4-8-16-9-22-2-5 5-5 14 0 20 10 9 26 1 25-12l2-1q4-1 4 1c0 9-7 17-15 19-14 4-29-9-25-23 2-11 14-18 24-16Zm3-5c8 2 13 7 17 14 3 5 1 4-1 5-10-31-55-17-46 13 10 27 48 19 46-9 3-1 4-3 4 4 1 24-30 37-47 20a28 28 0 0 1 27-47Zm-12-5c-23 3-36 32-22 50l2 3c-2 2-6 7-5 10v3c4 3 11-3 14-5h3c8 3 18 3 26 0 3 3 10 9 12 6 3-2 0-9-3-14 7-6 10-18 8-28l5-1c3 1 8 3 10 2 5 0 15-3 17-5 1-1 1-3-1-4l-2-4-1-3c0-2-14 3-17 3-4 5-6 7-12 9-5-15-19-24-34-22Zm-199 8c4 4 14 17 15 24 0 2-2 4-27 18l-25 14-21 11c-7-3-16-26-17-29 0-3 1-3 6-7 10-5 65-38 69-31Zm-7-5c-9 4-56 26-71 38 0 1-2 6-1 7 8 15 15 32 21 30 4 0 6-1 22-10 8-5 51-29 52-31 9-5-11-28-14-32-2-3-5-3-9-2Z" fill="#ebebeb"></path><path d="M1496 942c2 3 1 5-2 5-3 1-6-3-3-5h5Zm-5-4c-10 4-2 17 7 12 7-4 0-15-7-12Zm-11 13c2 3-3 9-5 5-4-4 2-8 5-5Zm-6-4c-10 5 0 20 8 11 5-5-1-14-8-11Zm31 11c3 5-5 7-6 2 0-4 4-5 6-2Zm-6-4c-6 2-4 12 2 12 4 1 9-3 8-7 0-5-6-8-10-5Zm-38 7c3 3-1 8-4 6-4-3 0-9 4-6Zm-4-4c-11 4-2 20 6 12 5-5 0-14-6-12Zm29 10c5 2 0 9-4 6-3-3 1-8 4-6Zm-4-4c-7 3-6 14 2 14 12 1 9-17-2-14Zm-40 9c4 5-5 7-6 2 0-3 4-4 6-2Zm-5-4c-11 5 1 18 8 10 4-5-2-13-8-10Zm33 8c3 3-1 8-5 7-6-2 1-9 5-7Zm-5-3c-8 2-8 13 0 14 13 1 13-18 0-14Zm-16 13c6 3 2 10-3 4-2-2 1-6 3-4Zm-3-4c-8 3-3 15 4 14 11-2 5-16-4-14Zm-729-16c7 5 13 9 20 12-6 8-6 12-8 24 0 15-9 33-18 40-3 1-13-2-18-3-14-1-12-2-21-10l-14-15c-4-9 23-31 32-36 11-6 13-11 19-19l8 7Zm9-18c-1 1 0 3 1 3l7-3 4 2-1 4c-1 6 3 6 4 2v1c1 0-1 18-3 17-9-3-19-11-26-18 4-4 10-8 15-9l-1 1Zm21-4c0 1-2 2-4 1l4-1Zm-10-9c1 2 2 5 1 6l-2-4c0-2 0-3 1-2Zm-3-4c-3 2-1 10 1 13l-11 1c-5 1-10 4-13 8l-2 1c-7 6-9 15-20 21-13 6-38 31-35 39 2 4 12 12 16 18 8 12 20 10 33 13l9 1c13-8 20-29 21-44 1-13 3-18 8-26 3-3 5-17 4-20l-3-7c9 2 12-9 3-8l-3-1c-1-5-3-11-8-9Z" fill="#ebebeb"></path><path d="M682 1011c4 4 16 11 21 13 1 1 1 1-1 3s-2 2-5 1-20-9-22-14l3-5 4 2Zm16 1c10 5 11 5 8 10-4-2-23-13-25-16-1-1 1-3 2-4l15 10Zm-17-13-9 13c-1 4 0 7 9 12s15 8 18 8c3 1 5-1 9-7 3-5 4-7 2-10 0-2-18-11-22-13-5-3-6-4-7-3Zm1163-20c22 20 77 21 98-1l-1 22c-21 27-78 20-101-2v-23l4 4Zm60 2 9 8-14 1c-14 1-32-2-43-7-3-2-4-2 8-3l31-5 9 6Zm-57-20 16 15-13 3c-7-3-11-14-7-20 1-1 2 0 4 2Zm9-9 23 21v1l-11 1-21-19 7-5 2 1Zm22 3 15 16-9 2-26-24 11-3 9 9Zm35-9c36 9 37 34 4 41l-15-11c-6-5-5-2-2-8l8-22h5Zm-26-1 12 15-3 7c-6-4-17-17-23-22l13-1 1 1Zm14-1c5 1 5-1 2 6l-2 6-10-12h10Zm-18-4c-22 1-40 10-44 21-2 0-2 29-2 38 23 25 85 33 107 2l1-34v-3c-8-20-40-25-62-24ZM837 987c0 15-11 18-23 11q-4-2 1-2l6 1h3c3-2 8-6 8-9-1-2 3-5 3-7l2 6Zm-6-19 1 6c2 7-4 7-4 12 1 3-2 5-4 7h-9l-8-2-5-2-3-6c7-8 21-18 32-15Zm-52-6c7 3 17 10 10 17-2 3-6 0-8-2-3-3-8-4-8-8-4-8-5-10 6-7Zm-13 1 4 9c0 2 1 3 5 5s6 6 10 7h1c-5 2-11 1-15-1-5-3-12-10-10-17l3-8 2 5Zm16-11c5 1 8 8 12 12s5 7 6 12c-2 4-4 6-7 5 9-13-13-26-24-23l-1-4c1-3 9-5 14-2Zm-9-5c-9 2-15 14-15 22-1 7 7 16 15 19 5 2 17 0 23-2l1 2c2 7 16 14 22 16 24 7 25-21 15-37-4-6-15-2-21 1l-10 6c-1-4-2-8-5-12l-6-7c-5-6-12-10-19-8Zm1021 32c4 2 6 7 7 20 1 4 0 4-3 5h-20c-3-12 2-30 16-25Zm-1-24c7 3 9 13 3 18l-3 2c-3-1-7 1-9-1-9-6-2-24 9-19Zm-7-4c-11 4-13 19-4 26-6 5-8 9-8 20 0 7 0 8 2 11 6 0 27 0 27-2 2-1 2-3 1-9 0-11-2-15-6-20 11-9 3-30-12-26Zm-677 44c-1 6 0 9-5 12l-29 6-15 3 4-17c1-3 1-4 3-4l23-4 20-2-1 6Zm-78-19 30 19-5 22-8-4c-14-8-29-15-28-22-1-2 6-16 7-19l4 4Zm44-12 27 18c5 3 5 3 2 4l-39 5c-1 1-1 1-4-1l-11-7c-16-9-20-12-20-13l19-4c8-1 18-5 26-2Zm-12-4-31 6c-3 0-5 2-5 2l-1 1c-3-1-7 13-9 18-4 13 11 18 27 29 9 5 14 6 15 5s4-2 18-4c21-4 29-7 32-9 2-3 3-6 4-17 1-5 1-7-1-7-17-11-33-27-49-24Z" fill="#ebebeb"></path><path d="m1102 999-2 4c-2 1-3 0-3-1 0-3 3-5 5-3Zm-4-4c-4 2-6 9-2 11 6 4 14-11 5-12l-3 1Zm-11 7-2 3c-3 1-2-4 0-5s2 0 2 2Zm-2-6c-3 1-4 3-5 6-2 6 5 9 9 5 3-4 3-13-4-11Zm-12 7-2 4c-3 3-2-6 1-5l1 1Zm-3-5c-3 2-5 8-4 11 3 4 9 1 10-4 1-4 0-7-4-7h-2Zm692-14c-11 5-21 17-27 30-1-2-2-7-4-6-1 0-2 1 0 5 1 5 2 6 6 7l10-5c2-1 1-3-1-3l-7 3c4-11 13-21 24-28 3-2 4-3 2-4l-3 1Zm53 0-3 6c0 3 0 4 2 4l1-3q1-3 3-2l9 10c2 4 4 8 5 14 2 6 2 7 4 7l1-2c-1-10-5-20-14-28l-2-3c1 0 5 1 5-1 0-3-9-3-11-2Zm-959 50c22 3 43 22 66 12-2 3-6 8-7 12v11l-1 10c-11 16-48 6-65-1-11-6-24-16-18-28 1-3 4-6 11-11 7-6 4-6 14-5Zm0-9c9 7 25 10 36 13l16 7c-8 1-12-1-27-7-14-6-21-8-30-8l2-5c0-2 1-1 3 0Zm4-14c0 9 44 24 52 24 4-1 5-1 9-5 2-2 2-1 3 1 3 8-4 11-9 11l-12-3c-10-6-35-10-41-14l-10-7v-4c0-1 9-6 8-3Zm59-2c3 0 1 5-8 18l-7-6c-1-1 5-8 7-11 3-2 5-3 8-1Zm-17-4h1c-1 5-6 13-4 15l9 9 2 2-9-2c-12-4-42-15-36-19 6-2 28-7 37-5Zm32-18c7 5-8 16-7 22l-3 7-8 10c4-6 8-13 8-18-7-7-14-4-19 5l-3 3c10-22 12-9 22-22 4-4 6-8 10-7Zm-5-3c-3 0-11 14-14 13-5 2-6 2-9 5h-2c-3-3-29 2-42 5-8 0-13 2-14 10v3c1 1 2 3 1 5 0 5-21 18-22 24-11 33 55 47 79 41 6-2 10-5 12-11l1-20 9-15c1-3-2-2-1-5 2-4 1-11-3-15-1-1-1-1 2-6 4-5 4-7 5-11l7-10c4-7-1-16-9-13Zm194 40v3l-3-2 3-3v2Zm46-5c4 5 5 8 0 12-5-3-11-3-17-3-1-3-2-9-1-11h13c4 0 4-1 5 2Zm-39 1v13c-3 0-5-10-3-15 4-6 3-7 3 2Zm66-15c2 1 6 2 3 4h-3c-3-1-14-1-10 4h9c2-1 2 0 3 1 2 0 2 1 0 2h-12c-1 1-2 2-1 3 0 1 2 2 7 2s6 0 8 2c-1 1-4 2-6 1h-8c-3 4 3 5 7 5h5l1 2-9-1c-6-1-7 4-2 6h11c2 2-14 1-15 0-22-7-1-1-11-18-2-3-2-2 1-4 7-4 12-11 22-9Zm-48 1 3 1c-2 4-5 10-4 15 0 15 12 15-1 17-2 1-9 1-10-1-2-2-3-12-2-21 0-7 1-10 2-11 1-2 7-2 12 0Zm66-15c19 5 27 34 10 47-6 4-17 8-26 8-8 2-31-8-40-10-3 0-4-3-5-5 7 1 8 1 18 5 13 4 23 8 32 2v-5c1-3 0-5-2-6 2-1 3-3 3-5l-3-3c3-2 3-5 1-8 6-5-2-9-8-9-15-2-19 13-34 12l-8-1c1-2 2-5 4-5 1-1 20-10 27-12 11-5 20-7 31-5Zm-16-4c-12 2-34 13-44 18-8-4-18-6-22 0l-1 2c-2 1-6 7-7 10-3 2-11 6-7 11l6 3 2 2 5 5 2 1 4 4c4 1 14 0 18-2l3-2c7 2 31 13 40 11 25 0 46-17 39-41-6-18-20-25-38-22Zm-217 31 5 6v7c5 9 28 20 40 25 9 5 19 9 13 11-15 3-39-19-56-29-2-1-3-1-5 1l-3 2-7-3-3-2 13-21 3 3Zm-21-16c1 1 14 8 14 11l-13 21-15-8c-5-3-6-4-6-6l8-12c1-2 6 5 8 2 2-1-6-5-5-6l5 3c4 1 5 3 7 2 2-2-7-6-8-8 0-1 2-1 5 1Zm-7-4c-3 1-16 19-17 22-1 6 8 8 18 14 6 4 12 8 19 9 2 2 5 0 8-2 21 13 43 34 60 30 17-10-28-23-36-29l-15-10v-9c-5-6-29-30-37-25Zm617 6 5 9c10 29 19 3 32 38 3 8-13 18-19 19-5-1-13-14-16-18-4-6-1-14-1-21 1-3-5-17-9-24 3-1 7-4 8-3Zm-6-2c-8 4-5 4-2 12 12 21-2 25 8 42 4 7 12 16 15 17s6 1 9-1c6-3 13-8 15-13 5-9-5-23-10-29-2-2-5-3-9-4-14 0-11-33-26-24Zm385 6 1 6 1-5-2-1Zm7 3c-2 2-2 3-1 3 0 0 5-4 4-5l-3 2Z" fill="#ebebeb"></path></svg> 